%FSTAX23Y23*%
%MOMM*%
%SFA1B1*%

%IPPOS*%
%ADD16C,0.253999*%
%ADD64C,0.100000*%
%ADD79R,0.302599X1.549997*%
%ADD80R,1.549997X0.302599*%
%LNpcb1-1*%
%LPD*%
G54D16*
X06243Y06116D02*
X08656D01*
X11069*
G54D64*
X23974Y01229D02*
D01*
D01*
G75*
G03X22974I-00499J0D01*
G74*G01*
D01*
G75*
G03X23974I00500J0D01*
G74*G01*
X11973Y00532D02*
D01*
D01*
G75*
G03X11173I-00399J-0D01*
G74*G01*
D01*
G75*
G03X11973I00399J0D01*
G74*G01*
X07947Y-08789D02*
D01*
D01*
G75*
G03X06947I-00500J0D01*
G74*G01*
D01*
G75*
G03X07947I00499J0D01*
G74*G01*
X-00785Y55138D02*
D01*
D01*
G75*
G03X08645Y45323I09823J0D01*
G74*G01*
X25674Y45316D02*
D01*
D01*
G75*
G03X35624Y55138I00127J09822D01*
G74*G01*
X20467Y45316D02*
D01*
D01*
G75*
G03Y4412I0J-00597D01*
G74*G01*
X33469Y64363D02*
D01*
D01*
G75*
G03X00917Y64229I-15795J-116909D01*
G74*G01*
D01*
D01*
G75*
G03X-00785Y55138I23733J-09149D01*
G74*G01*
X35624D02*
D01*
D01*
G75*
G03X3347Y6437I-25412J-01063D01*
G74*G01*
X14378Y44127D02*
D01*
D01*
G75*
G03Y45323I-0J00597D01*
G74*G01*
X14379Y07932D02*
D01*
D01*
G75*
G03Y09127I0J00597D01*
G74*G01*
X20468Y0912D02*
D01*
D01*
G75*
G03Y07925I0J-00597D01*
G74*G01*
X33186Y-04716D02*
Y-03116D01*
X32386Y-04716D02*
Y-03116D01*
X33186*
X32386Y-04716D02*
X33186D01*
X22574Y-1047D02*
Y02129D01*
X28774Y-1047D02*
Y02129D01*
X22574D02*
X28774D01*
X22574Y-1047D02*
X28774D01*
X34202Y05316D02*
Y06916D01*
X33402Y05316D02*
Y06916D01*
X34202*
X33402Y05316D02*
X34202D01*
X31662D02*
Y06916D01*
X30862Y05316D02*
Y06916D01*
X31662*
X30862Y05316D02*
X31662D01*
X28449D02*
Y06916D01*
X29249Y05316D02*
Y06916D01*
X28449Y05316D02*
X29249D01*
X28449Y06916D02*
X29249D01*
X26036Y05316D02*
Y06916D01*
X26836Y05316D02*
Y06916D01*
X26036Y05316D02*
X26836D01*
X26036Y06916D02*
X26836D01*
X23623Y05316D02*
Y06916D01*
X24423Y05316D02*
Y06916D01*
X23623Y05316D02*
X24423D01*
X23623Y06916D02*
X24423D01*
X2121Y05316D02*
Y06916D01*
X2201Y05316D02*
Y06916D01*
X2121Y05316D02*
X2201D01*
X2121Y06916D02*
X2201D01*
X12373Y-00267D02*
Y01832D01*
X10273Y-00267D02*
Y01832D01*
Y-00267D02*
X12373D01*
X10273Y01832D02*
X12373D01*
X13266Y-02284D02*
Y-01484D01*
X11666Y-02284D02*
Y-01484D01*
Y-02284D02*
X13266D01*
X11666Y-01484D02*
X13266D01*
Y-04697D02*
Y-03897D01*
X11666Y-04697D02*
Y-03897D01*
Y-04697D02*
X13266D01*
X11666Y-03897D02*
X13266D01*
X08347Y-09689D02*
Y-00989D01*
X04447Y-09689D02*
Y-00989D01*
Y-09689D02*
X08347D01*
X04447Y-00989D02*
X08347D01*
X13266Y-09523D02*
Y-08723D01*
X11666Y-09523D02*
Y-08723D01*
Y-09523D02*
X13266D01*
X11666Y-08723D02*
X13266D01*
Y-0711D02*
Y-0631D01*
X11666Y-0711D02*
Y-0631D01*
Y-0711D02*
X13266D01*
X11666Y-0631D02*
X13266D01*
X10669Y05316D02*
X11469D01*
X10669Y06916D02*
X11469D01*
X10669Y05316D02*
Y06916D01*
X11469Y05316D02*
Y06916D01*
X20956Y02649D02*
X21756D01*
X20956Y04249D02*
X21756D01*
Y02649D02*
Y04249D01*
X20956Y02649D02*
Y04249D01*
X19178Y02649D02*
X19978D01*
X19178Y04249D02*
X19978D01*
Y02649D02*
Y04249D01*
X19178Y02649D02*
Y04249D01*
X16292Y05745D02*
X18292D01*
X16292Y06995D02*
X18292D01*
X16292Y05745D02*
Y06995D01*
X18292Y05745D02*
Y06995D01*
X19342Y06889D02*
X21592D01*
X19342Y05339D02*
X21592D01*
Y06889*
X19342Y05339D02*
Y06889D01*
X15017Y03594D02*
Y05844D01*
X13467Y03594D02*
Y05844D01*
Y03594D02*
X15017D01*
X13467Y05844D02*
X15017D01*
X05843Y06916D02*
X06643D01*
X05843Y05316D02*
X06643D01*
Y06916*
X05843Y05316D02*
Y06916D01*
X08256D02*
X09056D01*
X08256Y05316D02*
X09056D01*
Y06916*
X08256Y05316D02*
Y06916D01*
X36731Y-11719D02*
Y07925D01*
X20468D02*
X36731D01*
X-01884Y-11712D02*
X36731D01*
X-01884D02*
Y07932D01*
X20467Y45316D02*
X25674D01*
X08645Y45323D02*
X14378D01*
X-01884Y07932D02*
X14379D01*
X14378Y09127D02*
Y44127D01*
X20467Y0912D02*
Y4412D01*
G54D79*
X19494Y06114D03*
G54D80*
X14242Y05693D03*
M02*