%FSTAX23Y23*%
%MOMM*%
%SFA1B1*%

%IPPOS*%
%AMD46*
4,1,4,0.355600,0.347980,-0.434340,0.243840,-0.355600,-0.347980,0.434340,-0.243840,0.355600,0.347980,0.0*
%
%AMD47*
4,1,4,-0.208280,-0.330200,0.287020,-0.264160,0.208280,0.330200,-0.287020,0.264160,-0.208280,-0.330200,0.0*
%
%AMD48*
4,1,4,0.386080,0.317500,-0.411480,0.281940,-0.386080,-0.317500,0.411480,-0.281940,0.386080,0.317500,0.0*
%
%AMD49*
4,1,4,-0.236220,-0.309880,0.261620,-0.289560,0.236220,0.309880,-0.261620,0.289560,-0.236220,-0.309880,0.0*
%
%AMD52*
4,1,4,0.411480,0.281940,-0.386080,0.317500,-0.411480,-0.281940,0.386080,-0.317500,0.411480,0.281940,0.0*
%
%AMD53*
4,1,4,-0.261620,-0.289560,0.236220,-0.309880,0.261620,0.289560,-0.236220,0.309880,-0.261620,-0.289560,0.0*
%
%AMD54*
4,1,4,0.424180,0.264160,-0.370840,0.332740,-0.424180,-0.264160,0.370840,-0.332740,0.424180,0.264160,0.0*
%
%AMD55*
4,1,4,-0.274320,-0.276860,0.220980,-0.320040,0.274320,0.276860,-0.220980,0.320040,-0.274320,-0.276860,0.0*
%
%AMD56*
4,1,4,0.434340,0.243840,-0.355600,0.347980,-0.434340,-0.243840,0.355600,-0.347980,0.434340,0.243840,0.0*
%
%AMD57*
4,1,4,-0.287020,-0.264160,0.208280,-0.330200,0.287020,0.264160,-0.208280,0.330200,-0.287020,-0.264160,0.0*
%
%AMD58*
4,1,4,0.370840,0.332740,-0.424180,0.264160,-0.370840,-0.332740,0.424180,-0.264160,0.370840,0.332740,0.0*
%
%AMD59*
4,1,4,-0.220980,-0.320040,0.274320,-0.276860,0.220980,0.320040,-0.274320,0.276860,-0.220980,-0.320040,0.0*
%
%ADD39R,0.949998X0.799998*%
%ADD40R,1.599997X0.549999*%
%ADD41R,4.099992X9.099982*%
%ADD42R,0.599999X0.349999*%
%ADD43R,0.999998X1.699997*%
%ADD44R,0.799998X0.949998*%
%ADD45R,1.599997X0.699999*%
G04~CAMADD=46~9~0.0~0.0~315.0~236.2~0.0~0.0~0~0.0~0.0~0.0~0.0~0~0.0~0.0~0.0~0.0~0~0.0~0.0~0.0~7.5~342.0~273.0*
%ADD46D46*%
G04~CAMADD=47~9~0.0~0.0~196.9~236.2~0.0~0.0~0~0.0~0.0~0.0~0.0~0~0.0~0.0~0.0~0.0~0~0.0~0.0~0.0~187.5~226.0~259.0*
%ADD47D47*%
G04~CAMADD=48~9~0.0~0.0~315.0~236.2~0.0~0.0~0~0.0~0.0~0.0~0.0~0~0.0~0.0~0.0~0.0~0~0.0~0.0~0.0~2.5~324.0~249.0*
%ADD48D48*%
G04~CAMADD=49~9~0.0~0.0~196.9~236.2~0.0~0.0~0~0.0~0.0~0.0~0.0~0~0.0~0.0~0.0~0.0~0~0.0~0.0~0.0~182.5~206.0~243.0*
%ADD49D49*%
%ADD50R,0.799998X0.599999*%
%ADD51R,0.499999X0.599999*%
G04~CAMADD=52~9~0.0~0.0~315.0~236.2~0.0~0.0~0~0.0~0.0~0.0~0.0~0~0.0~0.0~0.0~0.0~0~0.0~0.0~0.0~357.5~324.0~249.0*
%ADD52D52*%
G04~CAMADD=53~9~0.0~0.0~196.9~236.2~0.0~0.0~0~0.0~0.0~0.0~0.0~0~0.0~0.0~0.0~0.0~0~0.0~0.0~0.0~177.5~206.0~243.0*
%ADD53D53*%
G04~CAMADD=54~9~0.0~0.0~315.0~236.2~0.0~0.0~0~0.0~0.0~0.0~0.0~0~0.0~0.0~0.0~0.0~0~0.0~0.0~0.0~355.0~334.0~261.0*
%ADD54D54*%
G04~CAMADD=55~9~0.0~0.0~196.9~236.2~0.0~0.0~0~0.0~0.0~0.0~0.0~0~0.0~0.0~0.0~0.0~0~0.0~0.0~0.0~175.0~216.0~251.0*
%ADD55D55*%
G04~CAMADD=56~9~0.0~0.0~315.0~236.2~0.0~0.0~0~0.0~0.0~0.0~0.0~0~0.0~0.0~0.0~0.0~0~0.0~0.0~0.0~352.5~342.0~273.0*
%ADD56D56*%
G04~CAMADD=57~9~0.0~0.0~196.9~236.2~0.0~0.0~0~0.0~0.0~0.0~0.0~0~0.0~0.0~0.0~0.0~0~0.0~0.0~0.0~172.5~226.0~259.0*
%ADD57D57*%
G04~CAMADD=58~9~0.0~0.0~315.0~236.2~0.0~0.0~0~0.0~0.0~0.0~0.0~0~0.0~0.0~0.0~0.0~0~0.0~0.0~0.0~5.0~334.0~261.0*
%ADD58D58*%
G04~CAMADD=59~9~0.0~0.0~196.9~236.2~0.0~0.0~0~0.0~0.0~0.0~0.0~0~0.0~0.0~0.0~0.0~0~0.0~0.0~0.0~185.0~216.0~251.0*
%ADD59D59*%
%ADD60C,1.699997*%
%ADD61C,2.599995*%
%ADD62C,0.599999*%
%ADD63C,0.699999*%
%LNpcb1-1*%
%LPD*%
G54D39*
X32786Y-03091D03*
Y-04741D03*
X33802Y06941D03*
Y05291D03*
X31262Y06941D03*
Y05291D03*
X28849D03*
Y06941D03*
X26436Y05291D03*
Y06941D03*
X24023Y05291D03*
Y06941D03*
X2161Y05291D03*
Y06941D03*
X11069Y05291D03*
Y06941D03*
X06243D03*
Y05291D03*
X08656Y06941D03*
Y05291D03*
G54D40*
X21924Y01679D03*
Y01029D03*
Y00379D03*
Y-0027D03*
Y-0092D03*
Y-0157D03*
Y-0222D03*
Y-0287D03*
Y-0352D03*
Y-0417D03*
Y-0482D03*
Y-0547D03*
Y-0612D03*
Y-0677D03*
Y-0742D03*
Y-0807D03*
Y-0872D03*
Y-0937D03*
Y-1002D03*
X29424Y01679D03*
Y01029D03*
Y00379D03*
Y-0027D03*
Y-0092D03*
Y-0157D03*
Y-0222D03*
Y-0287D03*
Y-0352D03*
Y-0417D03*
Y-0482D03*
Y-0547D03*
Y-0612D03*
Y-0677D03*
Y-0742D03*
Y-0807D03*
Y-0872D03*
Y-0937D03*
Y-1002D03*
G54D41*
X25674Y-0417D03*
G54D42*
X12273Y00032D03*
Y00532D03*
Y01032D03*
Y01532D03*
X10373D03*
Y01032D03*
Y00532D03*
Y00032D03*
G54D43*
X11323Y00782D03*
G54D44*
X13291Y-01884D03*
X11641D03*
X13291Y-04297D03*
X11641D03*
X13291Y-09123D03*
X11641D03*
X13291Y-0671D03*
X11641D03*
G54D45*
X09097Y-09149D03*
Y-07879D03*
Y-06609D03*
Y-05339D03*
Y-04069D03*
Y-02799D03*
Y-01529D03*
X03697Y-09149D03*
Y-07879D03*
Y-06609D03*
Y-05339D03*
Y-04069D03*
Y-02799D03*
Y-01529D03*
G54D46*
X0377Y63723D03*
X0262Y63572D03*
G54D47*
X01708Y63451D03*
X04682Y63843D03*
G54D48*
X11903Y64308D03*
X10744Y64257D03*
G54D49*
X09825Y64217D03*
X12822Y64348D03*
G54D50*
X15967Y64409D03*
X14807D03*
X19904D03*
X18744D03*
G54D51*
X13887Y64409D03*
X16887D03*
X17824D03*
X20824D03*
G54D52*
X23841Y64257D03*
X22682Y64308D03*
G54D53*
X21763Y64348D03*
X2476Y64217D03*
G54D54*
X27776Y64105D03*
X2662Y64206D03*
G54D55*
X25704Y64286D03*
X28693Y64025D03*
G54D56*
X3171Y63699D03*
X3056Y6385D03*
G54D57*
X29648Y6397D03*
X32622Y63578D03*
G54D58*
X07837Y64079D03*
X06681Y63978D03*
G54D59*
X05765Y63898D03*
X08754Y64159D03*
G54D60*
X28987Y03449D03*
X26447D03*
X23907D03*
X31527D03*
X34067D03*
X06D03*
X0346D03*
X0092D03*
X0854D03*
X1108D03*
G54D61*
X34847Y-00006D03*
X0Y0D03*
Y-09828D03*
X34847Y-09835D03*
G54D62*
X24024Y-0032D03*
X25124D03*
X26224D03*
X27324D03*
X24024Y-0142D03*
X25124D03*
X26224D03*
X27324D03*
X24024Y-0252D03*
X25124D03*
X26224D03*
X27324D03*
X24024Y-0362D03*
X25124D03*
X26224D03*
X27324D03*
X24024Y-0472D03*
X25124D03*
X26224D03*
X27324D03*
X24024Y-0582D03*
X25124D03*
X26224D03*
X27324D03*
X24024Y-0692D03*
X25124D03*
X26224D03*
X27324D03*
X24024Y-0802D03*
X25124D03*
X26224D03*
X27324D03*
G54D63*
X11323Y01282D03*
Y00282D03*
M02*