%FSTAX23Y23*%
%MOMM*%
%SFA1B1*%

%IPPOS*%
%ADD10C,0.299999*%
%ADD62C,0.599999*%
%ADD69C,1.599997*%
%ADD70C,2.499995*%
%ADD71C,0.699999*%
%ADD72C,0.499999*%
%LNpcb1-1*%
%LPD*%
G36*
X2009Y07868D02*
X20272Y07792D01*
X20446Y07769*
X20468Y0776*
X36567*
Y-11548*
X-01719*
Y07767*
X14379*
X144Y07776*
X14575Y07799*
X14757Y07875*
X14783Y07894*
X20055*
X2009Y07868*
G37*
%LNpcb1-2*%
%LPC*%
G36*
X25128Y05651D02*
X24991Y05624D01*
X24874Y05546*
X24796Y05429*
X24769Y05292*
X24796Y05155*
X24874Y05038*
X24991Y04961*
X25128Y04933*
X25265Y04961*
X25382Y05038*
X2546Y05155*
X25487Y05292*
X2546Y05429*
X25382Y05546*
X25265Y05624*
X25128Y05651*
G37*
G36*
X29114Y04496D02*
Y03576D01*
X30033*
X30014Y03724*
X29908Y03981*
X29739Y04201*
X29518Y0437*
X29262Y04476*
X29114Y04496*
G37*
G36*
X2886D02*
X28712Y04476D01*
X28455Y0437*
X28235Y04201*
X28066Y03981*
X2796Y03724*
X2794Y03576*
X2886*
Y04496*
G37*
G36*
X26574D02*
Y03576D01*
X27493*
X27474Y03724*
X27368Y03981*
X27199Y04201*
X26978Y0437*
X26722Y04476*
X26574Y04496*
G37*
G36*
X06127D02*
Y03576D01*
X07046*
X07027Y03724*
X06921Y03981*
X06752Y04201*
X06531Y0437*
X06275Y04476*
X06127Y04496*
G37*
G36*
X05873D02*
X05725Y04476D01*
X05468Y0437*
X05248Y04201*
X05079Y03981*
X04973Y03724*
X04953Y03576*
X05873*
Y04496*
G37*
G36*
X17419Y05688D02*
X17243Y05653D01*
X17093Y05553*
X16993Y05404*
X16958Y05227*
X16993Y05051*
X17002Y05037*
X16926Y04923*
X16911Y04926*
X16735Y04891*
X16585Y04791*
X16485Y04642*
X1645Y04465*
X16485Y04289*
X16585Y04139*
X16735Y04039*
X16911Y04004*
X16926Y04007*
X17002Y03893*
X16993Y0388*
X16958Y03703*
X16993Y03527*
X17093Y03377*
X17243Y03277*
X17419Y03242*
X17596Y03277*
X17745Y03377*
X17845Y03527*
X1788Y03703*
X17845Y0388*
X17745Y04029*
X17596Y04129*
X17419Y04164*
X17404Y04161*
X17328Y04275*
X17337Y04289*
X17372Y04465*
X17337Y04642*
X17328Y04655*
X17404Y04769*
X17419Y04766*
X17596Y04801*
X17745Y04901*
X17791Y0497*
X19599*
X23072Y01498*
X23125Y01462*
X23093Y01335*
X22818*
X2169Y02463*
X21607Y02518*
X21509Y02538*
X16244*
X16145Y02518*
X16062Y02463*
X13807Y00207*
X13669Y00249*
X13654Y00324*
X13554Y00473*
X13405Y00573*
X13228Y00608*
X13052Y00573*
X12902Y00473*
X12802Y00324*
X12767Y00147*
X12802Y-00028*
X12902Y-00178*
X13052Y-00277*
X13126Y-00292*
X13168Y-0043*
X12996Y-00603*
X12862Y-0057*
X12855Y-00563*
X12782Y-00453*
X12665Y-00375*
X12528Y-00348*
X12391Y-00375*
X12274Y-00453*
X12182*
X12065Y-00375*
X11928Y-00348*
X11791Y-00375*
X11674Y-00453*
X11582*
X11465Y-00375*
X11328Y-00348*
X11191Y-00375*
X11074Y-00453*
X10997Y-00569*
X10969Y-00707*
X10997Y-00844*
X11074Y-00961*
X11191Y-01038*
X11328Y-01066*
X11465Y-01038*
X11582Y-00961*
X11674*
X11791Y-01038*
X11928Y-01066*
X12065Y-01038*
X12182Y-00961*
X12274*
X12384Y-01034*
X12391Y-01041*
X12424Y-01174*
X11056Y-02542*
X02705*
X02658Y-02473*
X02509Y-02373*
X02333Y-02338*
X02156Y-02373*
X02007Y-02473*
X01907Y-02623*
X01872Y-02799*
X01907Y-02975*
X02007Y-03125*
X02156Y-03225*
X02333Y-0326*
X02509Y-03225*
X02658Y-03125*
X02705Y-03056*
X10944*
X10993Y-03173*
X10542Y-03624*
X10461Y-03608*
X10284Y-03643*
X10135Y-03743*
X10035Y-03893*
X1Y-04069*
X10035Y-04245*
X10135Y-04395*
X10284Y-04495*
X10461Y-0453*
X10637Y-04495*
X10786Y-04395*
X10886Y-04245*
X10922Y-04069*
X10905Y-03988*
X15673Y00779*
X19243*
X19253Y00763*
X19181Y00636*
X18159*
X18061Y00617*
X17978Y00561*
X11063Y-06352*
X10833*
X10786Y-06283*
X10637Y-06183*
X10461Y-06148*
X10284Y-06183*
X10135Y-06283*
X10035Y-06433*
X1Y-06609*
X10035Y-06785*
X10135Y-06935*
X10284Y-07035*
X10461Y-0707*
X10637Y-07035*
X10786Y-06935*
X10833Y-06866*
X1117*
X11268Y-06846*
X11352Y-06791*
X18266Y00122*
X193*
X19368Y-00004*
X19312Y-00086*
X19277Y-00263*
X19294Y-00344*
X12015Y-07622*
X10833*
X10786Y-07553*
X10637Y-07453*
X10461Y-07418*
X10284Y-07453*
X10135Y-07553*
X10035Y-07703*
X1Y-07879*
X10035Y-08055*
X10135Y-08205*
X10284Y-08305*
X10461Y-0834*
X10637Y-08305*
X10786Y-08205*
X10833Y-08136*
X12122*
X1222Y-08116*
X12304Y-08061*
X19657Y-00707*
X19738Y-00723*
X19915Y-00688*
X20064Y-00589*
X20164Y-00439*
X20199Y-00263*
X20164Y-00086*
X20237Y00033*
X20256Y00039*
X20384Y-00045*
X2056Y-00081*
X20737Y-00045*
X20886Y00053*
X20986Y00203*
X21021Y00379*
X20986Y00556*
X20886Y00705*
X20737Y00805*
X2056Y0084*
X20384Y00805*
X2027Y00729*
X20202Y00749*
X20162Y00856*
X20164Y0086*
X20199Y01036*
X20164Y01213*
X20064Y01362*
X19915Y01462*
X19738Y01497*
X19562Y01462*
X19412Y01362*
X19366Y01293*
X15785*
X15737Y01411*
X1635Y02024*
X20094*
X20162Y01897*
X20134Y01856*
X20099Y01679*
X20134Y01503*
X20234Y01353*
X20384Y01253*
X2056Y01218*
X20737Y01253*
X20886Y01353*
X20986Y01503*
X21021Y01679*
X20986Y01856*
X20958Y01897*
X21026Y02024*
X21402*
X2253Y00896*
X22614Y0084*
X22712Y00821*
X30407*
X30442Y00748*
X30455Y00694*
X30362Y00556*
X30327Y00379*
X30362Y00203*
X30462Y00053*
X30612Y-00045*
X30788Y-00081*
X30965Y-00045*
X31114Y00053*
X31214Y00203*
X31249Y00379*
X31214Y00556*
X31122Y00694*
X31135Y00748*
X3117Y00821*
X31695*
X31794Y0084*
X31877Y00896*
X33633Y02652*
X33831Y0257*
X34067Y0254*
X34302Y0257*
X34522Y02661*
X3471Y02806*
X34855Y02994*
X34946Y03214*
X34977Y03449*
X34946Y03685*
X34855Y03904*
X3471Y04093*
X34522Y04237*
X34302Y04328*
X34067Y04359*
X33831Y04328*
X33612Y04237*
X33424Y04093*
X33279Y03904*
X33188Y03685*
X33157Y03449*
X33188Y03214*
X3327Y03016*
X31589Y01335*
X31254*
X31186Y01462*
X31214Y01503*
X31249Y01679*
X31214Y01856*
X31114Y02005*
X30965Y02105*
X30788Y0214*
X30612Y02105*
X30462Y02005*
X30416Y01936*
X2336*
X19887Y05409*
X19804Y05465*
X19705Y05484*
X17791*
X17745Y05553*
X17596Y05653*
X17419Y05688*
G37*
G36*
X31527Y04359D02*
X31291Y04328D01*
X31072Y04237*
X30884Y04093*
X30739Y03904*
X30648Y03685*
X30617Y03449*
X30648Y03214*
X30739Y02994*
X30884Y02806*
X31072Y02661*
X31291Y0257*
X31527Y0254*
X31762Y0257*
X31982Y02661*
X3217Y02806*
X32315Y02994*
X32406Y03214*
X32437Y03449*
X32406Y03685*
X32315Y03904*
X3217Y04093*
X31982Y04237*
X31762Y04328*
X31527Y04359*
G37*
G36*
X1108D02*
X10844Y04328D01*
X10625Y04237*
X10437Y04093*
X10292Y03904*
X10201Y03685*
X1017Y03449*
X10201Y03214*
X10292Y02994*
X10437Y02806*
X10625Y02661*
X10844Y0257*
X1108Y0254*
X11315Y0257*
X11535Y02661*
X11723Y02806*
X11868Y02994*
X11959Y03214*
X1199Y03449*
X11959Y03685*
X11868Y03904*
X11723Y04093*
X11535Y04237*
X11315Y04328*
X1108Y04359*
G37*
G36*
X0854D02*
X08304Y04328D01*
X08085Y04237*
X07897Y04093*
X07752Y03904*
X07661Y03685*
X0763Y03449*
X07661Y03214*
X07752Y02994*
X07897Y02806*
X08085Y02661*
X08304Y0257*
X0854Y0254*
X08775Y0257*
X08995Y02661*
X09183Y02806*
X09328Y02994*
X09419Y03214*
X0945Y03449*
X09419Y03685*
X09328Y03904*
X09183Y04093*
X08995Y04237*
X08775Y04328*
X0854Y04359*
G37*
G36*
X0346D02*
X03224Y04328D01*
X03005Y04237*
X02817Y04093*
X02672Y03904*
X02581Y03685*
X0255Y03449*
X02581Y03214*
X02672Y02994*
X02817Y02806*
X03005Y02661*
X03224Y0257*
X0346Y0254*
X03695Y0257*
X03915Y02661*
X04103Y02806*
X04248Y02994*
X04339Y03214*
X0437Y03449*
X04339Y03685*
X04248Y03904*
X04103Y04093*
X03915Y04237*
X03695Y04328*
X0346Y04359*
G37*
G36*
X0092D02*
X00684Y04328D01*
X00465Y04237*
X00277Y04093*
X00132Y03904*
X00041Y03685*
X0001Y03449*
X00041Y03214*
X00132Y02994*
X00277Y02806*
X00465Y02661*
X00684Y0257*
X0092Y0254*
X01155Y0257*
X01375Y02661*
X01563Y02806*
X01708Y02994*
X01799Y03214*
X0183Y03449*
X01799Y03685*
X01708Y03904*
X01563Y04093*
X01375Y04237*
X01155Y04328*
X0092Y04359*
G37*
G36*
X30033Y03322D02*
X29114D01*
Y02403*
X29262Y02422*
X29518Y02529*
X29739Y02698*
X29908Y02918*
X30014Y03174*
X30033Y03322*
G37*
G36*
X2886D02*
X2794D01*
X2796Y03174*
X28066Y02918*
X28235Y02698*
X28455Y02529*
X28712Y02422*
X2886Y02403*
Y03322*
G37*
G36*
X27493D02*
X26574D01*
Y02403*
X26722Y02422*
X26978Y02529*
X27199Y02698*
X27368Y02918*
X27474Y03174*
X27493Y03322*
G37*
G36*
X23028Y06251D02*
X22891Y06224D01*
X22774Y06146*
X22696Y06029*
X22669Y05892*
X22696Y05755*
X22627Y05631*
X22591Y05624*
X22474Y05546*
X22396Y05429*
X22369Y05292*
X22396Y05155*
X22474Y05038*
X22591Y04961*
X22627Y04953*
X22696Y04829*
X22669Y04692*
X22696Y04555*
X22627Y04431*
X22591Y04424*
X22474Y04346*
X22396Y04229*
X22369Y04092*
X22396Y03955*
X22474Y03838*
X22591Y03761*
X22728Y03733*
X22865Y03761*
X22944Y03813*
X23046Y03729*
X23028Y03685*
X22997Y03449*
X23028Y03214*
X23119Y02994*
X23264Y02806*
X23452Y02661*
X23671Y0257*
X23907Y0254*
X24142Y0257*
X24362Y02661*
X2455Y02806*
X24648Y02933*
X24744Y02901*
X24771Y02885*
X24796Y02755*
X24874Y02638*
X24991Y02561*
X25128Y02533*
X25265Y02561*
X25382Y02638*
X2546Y02755*
X25466Y02787*
X25602Y02819*
X25695Y02698*
X25915Y02529*
X26172Y02422*
X2632Y02403*
Y03449*
Y04496*
X26172Y04476*
X25915Y0437*
X25695Y04201*
X25608Y04087*
X25593Y04088*
X2548Y04129*
X2546Y04229*
X25382Y04346*
X25265Y04424*
X25128Y04451*
X24991Y04424*
X24874Y04346*
X24796Y04229*
X24769Y04092*
X24786Y0401*
X2479Y03989*
X24671Y03935*
X24662Y03947*
X2455Y04093*
X24362Y04237*
X24142Y04328*
X23907Y04359*
X23671Y04328*
X23452Y04237*
X23264Y04093*
X232Y0401*
X23081Y04064*
X23087Y04092*
X2306Y04229*
X2313Y04353*
X23165Y04361*
X23282Y04438*
X2336Y04555*
X23387Y04692*
X2336Y04829*
X23282Y04946*
X23165Y05024*
X2313Y05031*
X2306Y05155*
X23087Y05292*
X2306Y05429*
X2313Y05553*
X23165Y05561*
X23282Y05638*
X2336Y05755*
X23387Y05892*
X2336Y06029*
X23282Y06146*
X23165Y06224*
X23028Y06251*
G37*
G36*
X07046Y03322D02*
X06127D01*
Y02403*
X06275Y02422*
X06531Y02529*
X06752Y02698*
X06921Y02918*
X07027Y03174*
X07046Y03322*
G37*
G36*
X05873D02*
X04953D01*
X04973Y03174*
X05079Y02918*
X05248Y02698*
X05468Y02529*
X05725Y02422*
X05873Y02403*
Y03322*
G37*
G36*
X13228Y01751D02*
X13052Y01716D01*
X12902Y01616*
X12802Y01467*
X12767Y0129*
X12802Y01114*
X12902Y00964*
X13052Y00864*
X13228Y00829*
X13405Y00864*
X13554Y00964*
X13654Y01114*
X13689Y0129*
X13654Y01467*
X13554Y01616*
X13405Y01716*
X13228Y01751*
G37*
G36*
X00127Y01498D02*
Y00127D01*
X01498*
X01482Y00294*
X01396Y00578*
X01256Y00839*
X01068Y01068*
X00839Y01256*
X00578Y01396*
X00294Y01482*
X00127Y01498*
G37*
G36*
X-00127D02*
X-00294Y01482D01*
X-00578Y01396*
X-00839Y01256*
X-01068Y01068*
X-01256Y00839*
X-01396Y00578*
X-01482Y00294*
X-01498Y00127*
X-00127*
Y01498*
G37*
G36*
X34974Y01491D02*
Y00119D01*
X36346*
X36329Y00287*
X36243Y00571*
X36104Y00832*
X35916Y01061*
X35687Y01249*
X35425Y01389*
X35142Y01475*
X34974Y01491*
G37*
G36*
X3472D02*
X34552Y01475D01*
X34269Y01389*
X34008Y01249*
X33779Y01061*
X33591Y00832*
X33451Y00571*
X33365Y00287*
X33348Y00119*
X3472*
Y01491*
G37*
G36*
X10128Y-00348D02*
X09991Y-00375D01*
X09874Y-00453*
X09797Y-00569*
X09769Y-00707*
X09797Y-00844*
X09874Y-00961*
X09991Y-01038*
X10128Y-01066*
X10265Y-01038*
X10382Y-00961*
X1046Y-00844*
X10487Y-00707*
X1046Y-00569*
X10382Y-00453*
X10265Y-00375*
X10128Y-00348*
G37*
G36*
X-00127Y-00127D02*
X-01498D01*
X-01482Y-00294*
X-01396Y-00578*
X-01256Y-00839*
X-01068Y-01068*
X-00839Y-01256*
X-00578Y-01396*
X-00294Y-01482*
X-00127Y-01498*
Y-00127*
G37*
G36*
X01498D02*
X00127D01*
Y-01498*
X00294Y-01482*
X00578Y-01396*
X00839Y-01256*
X01068Y-01068*
X01256Y-00839*
X01396Y-00578*
X01482Y-00294*
X01498Y-00127*
G37*
G36*
X36346Y-00133D02*
X34974D01*
Y-01505*
X35142Y-01489*
X35425Y-01403*
X35687Y-01263*
X35916Y-01075*
X36104Y-00846*
X36243Y-00585*
X36329Y-00301*
X36346Y-00133*
G37*
G36*
X3472D02*
X33348D01*
X33365Y-00301*
X33451Y-00585*
X33591Y-00846*
X33779Y-01075*
X34008Y-01263*
X34269Y-01403*
X34552Y-01489*
X3472Y-01505*
Y-00133*
G37*
G36*
X0254Y-01063D02*
X02363Y-01098D01*
X02214Y-01198*
X02114Y-01347*
X02079Y-01524*
X02114Y-017*
X02214Y-01849*
X02363Y-01949*
X0254Y-01984*
X02716Y-01949*
X02865Y-01849*
X02965Y-017*
X03Y-01524*
X02965Y-01347*
X02865Y-01198*
X02716Y-01098*
X0254Y-01063*
G37*
G36*
X3161Y-01766D02*
X31434Y-01801D01*
X31284Y-01901*
X31184Y-0205*
X31149Y-02227*
X31184Y-02403*
X31284Y-02553*
X31434Y-02652*
X3161Y-02688*
X31787Y-02652*
X31936Y-02553*
X32036Y-02403*
X32071Y-02227*
X32036Y-0205*
X31936Y-01901*
X31787Y-01801*
X3161Y-01766*
G37*
G36*
X30788Y-02409D02*
X30612Y-02444D01*
X30462Y-02544*
X30362Y-02693*
X30327Y-0287*
X30362Y-03046*
X30462Y-03196*
X30612Y-03295*
X30788Y-0333*
X30965Y-03295*
X31114Y-03196*
X31214Y-03046*
X31249Y-0287*
X31214Y-02693*
X31114Y-02544*
X30965Y-02444*
X30788Y-02409*
G37*
G36*
X3161Y-03066D02*
X31434Y-03101D01*
X31284Y-03201*
X31184Y-0335*
X31149Y-03527*
X31184Y-03703*
X31284Y-03853*
X31434Y-03952*
X3161Y-03987*
X31787Y-03952*
X31936Y-03853*
X32036Y-03703*
X32071Y-03527*
X32036Y-0335*
X31936Y-03201*
X31787Y-03101*
X3161Y-03066*
G37*
G36*
X02333Y-03608D02*
X02156Y-03643D01*
X02007Y-03743*
X01907Y-03893*
X01872Y-04069*
X01907Y-04245*
X02007Y-04395*
X02156Y-04495*
X02333Y-0453*
X02509Y-04495*
X02658Y-04395*
X02758Y-04245*
X02794Y-04069*
X02758Y-03893*
X02658Y-03743*
X02509Y-03643*
X02333Y-03608*
G37*
G36*
X30788Y-03709D02*
X30612Y-03744D01*
X30462Y-03844*
X30362Y-03993*
X30327Y-0417*
X30362Y-04346*
X30462Y-04496*
X30612Y-04595*
X30788Y-04631*
X30965Y-04595*
X31114Y-04496*
X31214Y-04346*
X31249Y-0417*
X31214Y-03993*
X31114Y-03844*
X30965Y-03744*
X30788Y-03709*
G37*
G36*
X3161Y-04366D02*
X31434Y-04401D01*
X31284Y-04501*
X31184Y-0465*
X31149Y-04827*
X31184Y-05003*
X31284Y-05153*
X31434Y-05252*
X3161Y-05288*
X31787Y-05252*
X31936Y-05153*
X32036Y-05003*
X32071Y-04827*
X32036Y-0465*
X31936Y-04501*
X31787Y-04401*
X3161Y-04366*
G37*
G36*
X10461Y-04878D02*
X10284Y-04913D01*
X10135Y-05013*
X10035Y-05163*
X1Y-05339*
X10035Y-05515*
X10135Y-05665*
X10284Y-05765*
X10461Y-058*
X10637Y-05765*
X10786Y-05665*
X10886Y-05515*
X10922Y-05339*
X10886Y-05163*
X10786Y-05013*
X10637Y-04913*
X10461Y-04878*
G37*
G36*
X02333D02*
X02156Y-04913D01*
X02007Y-05013*
X01907Y-05163*
X01872Y-05339*
X01907Y-05515*
X02007Y-05665*
X02156Y-05765*
X02333Y-058*
X02509Y-05765*
X02658Y-05665*
X02758Y-05515*
X02794Y-05339*
X02758Y-05163*
X02658Y-05013*
X02509Y-04913*
X02333Y-04878*
G37*
G36*
X30788Y-05009D02*
X30612Y-05044D01*
X30462Y-05144*
X30362Y-05293*
X30327Y-0547*
X30362Y-05646*
X30462Y-05796*
X30612Y-05895*
X30788Y-0593*
X30965Y-05895*
X31114Y-05796*
X31214Y-05646*
X31249Y-0547*
X31214Y-05293*
X31114Y-05144*
X30965Y-05044*
X30788Y-05009*
G37*
G36*
X3161Y-05666D02*
X31434Y-05701D01*
X31284Y-05801*
X31184Y-0595*
X31149Y-06127*
X31184Y-06303*
X31284Y-06453*
X31434Y-06552*
X3161Y-06587*
X31787Y-06552*
X31936Y-06453*
X32036Y-06303*
X32071Y-06127*
X32036Y-0595*
X31936Y-05801*
X31787Y-05701*
X3161Y-05666*
G37*
G36*
X02333Y-06148D02*
X02156Y-06183D01*
X02007Y-06283*
X01907Y-06433*
X01872Y-06609*
X01907Y-06785*
X02007Y-06935*
X02156Y-07035*
X02333Y-0707*
X02509Y-07035*
X02658Y-06935*
X02758Y-06785*
X02794Y-06609*
X02758Y-06433*
X02658Y-06283*
X02509Y-06183*
X02333Y-06148*
G37*
G36*
X30788Y-06309D02*
X30612Y-06344D01*
X30462Y-06444*
X30362Y-06593*
X30327Y-0677*
X30362Y-06946*
X30462Y-07096*
X30612Y-07195*
X30788Y-07231*
X30965Y-07195*
X31114Y-07096*
X31214Y-06946*
X31249Y-0677*
X31214Y-06593*
X31114Y-06444*
X30965Y-06344*
X30788Y-06309*
G37*
G36*
X3161Y-06966D02*
X31434Y-07001D01*
X31284Y-07101*
X31184Y-0725*
X31149Y-07427*
X31184Y-07603*
X31284Y-07753*
X31434Y-07852*
X3161Y-07888*
X31787Y-07852*
X31936Y-07753*
X32036Y-07603*
X32071Y-07427*
X32036Y-0725*
X31936Y-07101*
X31787Y-07001*
X3161Y-06966*
G37*
G36*
X02333Y-07418D02*
X02156Y-07453D01*
X02007Y-07553*
X01907Y-07703*
X01872Y-07879*
X01907Y-08055*
X02007Y-08205*
X02156Y-08305*
X02333Y-0834*
X02509Y-08305*
X02658Y-08205*
X02758Y-08055*
X02794Y-07879*
X02758Y-07703*
X02658Y-07553*
X02509Y-07453*
X02333Y-07418*
G37*
G36*
X30788Y-07609D02*
X30612Y-07644D01*
X30462Y-07744*
X30362Y-07893*
X30327Y-0807*
X30362Y-08246*
X30462Y-08396*
X30612Y-08495*
X30788Y-0853*
X30965Y-08495*
X31114Y-08396*
X31214Y-08246*
X31249Y-0807*
X31214Y-07893*
X31114Y-07744*
X30965Y-07644*
X30788Y-07609*
G37*
G36*
X3161Y-08266D02*
X31434Y-08301D01*
X31284Y-08401*
X31184Y-0855*
X31149Y-08727*
X31184Y-08903*
X31284Y-09053*
X31434Y-09152*
X3161Y-09188*
X31787Y-09152*
X31936Y-09053*
X32036Y-08903*
X32071Y-08727*
X32036Y-0855*
X31936Y-08401*
X31787Y-08301*
X3161Y-08266*
G37*
G36*
X00127Y-08329D02*
Y-09701D01*
X01498*
X01482Y-09533*
X01396Y-0925*
X01256Y-08989*
X01068Y-0876*
X00839Y-08572*
X00578Y-08432*
X00294Y-08346*
X00127Y-08329*
G37*
G36*
X-00127D02*
X-00294Y-08346D01*
X-00578Y-08432*
X-00839Y-08572*
X-01068Y-0876*
X-01256Y-08989*
X-01396Y-0925*
X-01482Y-09533*
X-01498Y-09701*
X-00127*
Y-08329*
G37*
G36*
X34974Y-08336D02*
Y-09708D01*
X36346*
X36329Y-0954*
X36243Y-09257*
X36104Y-08996*
X35916Y-08767*
X35687Y-08579*
X35425Y-08439*
X35142Y-08353*
X34974Y-08336*
G37*
G36*
X3472D02*
X34552Y-08353D01*
X34269Y-08439*
X34008Y-08579*
X33779Y-08767*
X33591Y-08996*
X33451Y-09257*
X33365Y-0954*
X33348Y-09708*
X3472*
Y-08336*
G37*
G36*
X30788Y-08909D02*
X30612Y-08944D01*
X30462Y-09044*
X30362Y-09193*
X30327Y-0937*
X30362Y-09546*
X30462Y-09696*
X30612Y-09795*
X30788Y-0983*
X30965Y-09795*
X31114Y-09696*
X31214Y-09546*
X31249Y-0937*
X31214Y-09193*
X31114Y-09044*
X30965Y-08944*
X30788Y-08909*
G37*
G36*
X2056Y-09559D02*
X20384Y-09594D01*
X20234Y-09694*
X20134Y-09843*
X20099Y-1002*
X20134Y-10196*
X20234Y-10346*
X20384Y-10445*
X2056Y-1048*
X20737Y-10445*
X20886Y-10346*
X20986Y-10196*
X21021Y-1002*
X20986Y-09843*
X20886Y-09694*
X20737Y-09594*
X2056Y-09559*
G37*
G36*
X3161Y-09566D02*
X31434Y-09601D01*
X31284Y-09701*
X31184Y-0985*
X31149Y-10027*
X31184Y-10203*
X31284Y-10353*
X31434Y-10452*
X3161Y-10488*
X31787Y-10452*
X31936Y-10353*
X32036Y-10203*
X32071Y-10027*
X32036Y-0985*
X31936Y-09701*
X31787Y-09601*
X3161Y-09566*
G37*
G36*
X-00127Y-09955D02*
X-01498D01*
X-01482Y-10123*
X-01396Y-10407*
X-01256Y-10668*
X-01068Y-10897*
X-00839Y-11085*
X-00578Y-11224*
X-00294Y-1131*
X-00127Y-11327*
Y-09955*
G37*
G36*
X01498D02*
X00127D01*
Y-11327*
X00294Y-1131*
X00578Y-11224*
X00839Y-11085*
X01068Y-10897*
X01256Y-10668*
X01396Y-10407*
X01482Y-10123*
X01498Y-09955*
G37*
G36*
X36346Y-09962D02*
X34974D01*
Y-11334*
X35142Y-11317*
X35425Y-11231*
X35687Y-11092*
X35916Y-10904*
X36104Y-10675*
X36243Y-10414*
X36329Y-1013*
X36346Y-09962*
G37*
G36*
X3472D02*
X33348D01*
X33365Y-1013*
X33451Y-10414*
X33591Y-10675*
X33779Y-10904*
X34008Y-11092*
X34269Y-11231*
X34552Y-11317*
X3472Y-11334*
Y-09962*
G37*
%LNpcb1-3*%
%LPD*%
G36*
X2031Y00134D02*
X20291Y00152D01*
X20269Y00168*
X20246Y00183*
X20221Y00195*
X20195Y00206*
X20166Y00214*
X20136Y00221*
X20104Y00225*
X2007Y00228*
X20034Y00229*
Y00529*
X2007Y0053*
X20104Y00533*
X20136Y00538*
X20166Y00544*
X20195Y00553*
X20221Y00563*
X20246Y00576*
X20269Y0059*
X20291Y00606*
X2031Y00624*
Y00134*
G37*
G54D10*
X23253Y01679D02*
X30788D01*
X19705Y05227D02*
X23253Y01679D01*
X17419Y05227D02*
X19705D01*
X22712Y01078D02*
X31695D01*
X34067Y03449*
X21509Y02281D02*
X22712Y01078D01*
X16244Y02281D02*
X21509D01*
X11163Y-02799D02*
X16244Y02281D01*
X15567Y01036D02*
X19738D01*
X18159Y00379D02*
X2056D01*
X1117Y-06609D02*
X18159Y00379D01*
X12122Y-07879D02*
X19738Y-00263D01*
X02333Y-02799D02*
X11163D01*
X10461Y-04069D02*
X15567Y01036D01*
X10461Y-06609D02*
X1117D01*
X10461Y-07879D02*
X12122D01*
G54D62*
X11323Y01282D03*
Y00282D03*
G54D69*
X28987Y03449D03*
X26447D03*
X34067D03*
X06D03*
G54D70*
X34847Y-00006D03*
X0Y0D03*
Y-09828D03*
X34847Y-09835D03*
G54D71*
X30788Y01679D03*
X22817Y06941D03*
X19738Y01036D03*
Y-00263D03*
X2056Y00379D03*
X17419Y05227D03*
X02333Y-02799D03*
Y-09149D03*
X10461Y-04069D03*
Y-06609D03*
Y-07879D03*
X13291Y-05503D03*
Y-07916D03*
Y-0309D03*
X27643Y06941D03*
X2523D03*
X32786Y-06105D03*
G54D72*
X24024Y-0032D03*
X25124D03*
X26224D03*
X27324D03*
X24024Y-0142D03*
X25124D03*
X26224D03*
X27324D03*
X24024Y-0252D03*
X25124D03*
X26224D03*
X27324D03*
X24024Y-0362D03*
X25124D03*
X26224D03*
X27324D03*
X24024Y-0472D03*
X25124D03*
X26224D03*
X27324D03*
X24024Y-0582D03*
X25124D03*
X26224D03*
X27324D03*
X24024Y-0692D03*
X25124D03*
X26224D03*
X27324D03*
X24024Y-0802D03*
X25124D03*
X26224D03*
X27324D03*
X27828Y04092D03*
X35328Y07092D03*
X35828Y06092D03*
X35328Y05092D03*
X35828Y04092D03*
X35328Y03092D03*
X35828Y02092D03*
Y-01907D03*
X35328Y-02907D03*
X35828Y-03907D03*
X35328Y-04907D03*
X35828Y-05907D03*
X35328Y-06907D03*
X35828Y-07907D03*
X34828Y06092D03*
Y02092D03*
Y-01907D03*
X34328Y-02907D03*
X34828Y-03907D03*
X34328Y-04907D03*
X34828Y-05907D03*
X34328Y-06907D03*
X34828Y-07907D03*
X33828Y02092D03*
X33328Y01092D03*
Y-00907D03*
X33828Y-01907D03*
Y-03907D03*
Y-05907D03*
X33328Y-06907D03*
X33828Y-07907D03*
X33328Y-08907D03*
Y-10907D03*
X32828Y06092D03*
X32328Y05092D03*
X32828Y04092D03*
Y00092D03*
X32328Y-06907D03*
X32828Y-07907D03*
Y-09907D03*
X32328Y-10907D03*
X31828Y00092D03*
X31328Y-10907D03*
X30328Y07092D03*
Y-10907D03*
X29328D03*
X27828Y06092D03*
X21328Y-10907D03*
X20328D03*
X19328D03*
X18328D03*
X17328D03*
X16328D03*
X15328D03*
X14328Y07092D03*
Y-10907D03*
X13328Y07092D03*
Y-10907D03*
X12328Y07092D03*
X12828Y04092D03*
X12328Y03092D03*
Y-10907D03*
X11328D03*
X10328D03*
X09828Y04092D03*
X09328Y-10907D03*
X08328D03*
X07328Y07092D03*
X07828Y06092D03*
X07328Y03092D03*
X07828Y02092D03*
X07328Y01092D03*
Y-10907D03*
X06828Y02092D03*
X06328Y01092D03*
X06828Y00092D03*
X06328Y-00907D03*
X06828Y-03907D03*
X06328Y-04907D03*
X06828Y-05907D03*
X06328Y-06907D03*
X06828Y-07907D03*
X06328Y-10907D03*
X05328Y05092D03*
X05828Y02092D03*
X05328Y01092D03*
X05828Y00092D03*
X05328Y-00907D03*
Y-04907D03*
X05828Y-05907D03*
X05328Y-06907D03*
X05828Y-07907D03*
X05328Y-10907D03*
X04328Y07092D03*
X04828Y06092D03*
X04328Y05092D03*
X04828Y04092D03*
Y02092D03*
X04328Y01092D03*
X04828Y00092D03*
X04328Y-10907D03*
X03328Y07092D03*
X03828Y06092D03*
X03328Y05092D03*
X03828Y02092D03*
X03328Y01092D03*
X03828Y00092D03*
X03328Y-10907D03*
X02328Y07092D03*
X02828Y06092D03*
Y02092D03*
X02328Y01092D03*
X02828Y00092D03*
X02328Y-10907D03*
X01328Y07092D03*
X01828Y06092D03*
Y02092D03*
Y-09907D03*
X00328Y07092D03*
X00828Y06092D03*
Y-01907D03*
X00328Y-02907D03*
X00828Y-03907D03*
X00328Y-04907D03*
X00828Y-05907D03*
X00328Y-06907D03*
X00828Y-07907D03*
X-00671Y07092D03*
X-00171Y06092D03*
X-00671Y05092D03*
X-00171Y-01907D03*
X-00671Y-02907D03*
X-00171Y-03907D03*
X-00671Y-04907D03*
X-00171Y-05907D03*
X-00671Y-06907D03*
X-00171Y-07907D03*
M02*