%FSTAX23Y23*%
%MOMM*%
%SFA1B1*%

%IPPOS*%
%ADD10C,0.299999*%
%ADD12C,0.599999*%
%ADD15C,0.200000*%
%ADD18R,0.849998X0.699999*%
%ADD62C,0.599999*%
%ADD67C,0.499999*%
%ADD69C,1.599997*%
%ADD70C,2.499995*%
%ADD71C,0.699999*%
%ADD72C,0.499999*%
%ADD73R,0.799998X1.299997*%
%ADD74R,1.099998X1.049998*%
%ADD75R,1.049998X1.099998*%
%LNpcb1-1*%
%LPD*%
G36*
X2009Y07868D02*
X20272Y07792D01*
X20446Y07769*
X20468Y0776*
X36567*
Y-11548*
X-01719*
Y07767*
X14379*
X144Y07776*
X14575Y07799*
X14757Y07875*
X14783Y07894*
X20055*
X2009Y07868*
G37*
%LNpcb1-2*%
%LPC*%
G36*
X18769Y07122D02*
X17765D01*
Y05708*
Y05692*
X1775Y05684*
X17638Y05625*
X17596Y05653*
X17529Y05666*
X16821Y06374*
X16819Y06375*
Y07122*
X15815*
Y06802*
X15814Y06799*
X1581Y06764*
X15804Y06747*
X15794Y06732*
X15776Y06716*
X15748Y06699*
X15707Y06682*
X15654Y06668*
X15588Y06657*
X1551Y0665*
X15417Y06648*
X15414Y06646*
X15135*
X14998Y06619*
X14881Y06541*
X14867Y06527*
X14864Y06526*
X14733Y06398*
X14504Y06197*
X14409Y06124*
X14325Y0607*
X1428Y06046*
X14091*
X14086Y06048*
X1408Y06046*
X14066*
X14063Y06047*
X14062Y06046*
X13615*
Y05909*
X13613Y05906*
X1361Y05871*
X13604Y05854*
X13593Y05839*
X13576Y05823*
X13548Y05806*
X13507Y05789*
X13453Y05775*
X13387Y05764*
X13309Y05757*
X13217Y05755*
X13214Y05753*
X09204*
X09067Y05726*
X0895Y05648*
X08402Y051*
X08325Y04984*
X08297Y04846*
Y04735*
X08297Y04735*
X08297Y04734*
Y04726*
X08296Y04723*
X08293Y04654*
X08284Y04594*
X0827Y04536*
X0825Y0448*
X08225Y04427*
X08193Y04375*
X08156Y04326*
X08112Y04277*
X08061Y0423*
X08001Y04183*
X07991Y04165*
X07897Y04093*
X07752Y03904*
X07661Y03685*
X0763Y03449*
X07661Y03214*
X07752Y02994*
X07897Y02806*
X08085Y02661*
X08304Y0257*
X0854Y0254*
X08775Y0257*
X08995Y02661*
X09183Y02806*
X09328Y02994*
X09419Y03214*
X0945Y03449*
X09419Y03685*
X09328Y03904*
X09271Y03978*
X09267Y03998*
X09217Y04067*
X09174Y04133*
X09136Y04198*
X09104Y04263*
X09077Y04328*
X09055Y04391*
X09038Y04454*
X09026Y04517*
X09019Y04579*
X09017Y04645*
X09015Y04648*
Y04698*
X09353Y05035*
X13214*
X13217Y05034*
X13309Y05031*
X13387Y05025*
X13453Y05014*
X13465Y0501*
X13493Y04946*
X13463Y04848*
Y04171*
X14242*
X15021*
Y04848*
X14869*
Y052*
X14871Y05205*
X14869Y05211*
Y05398*
X14905Y05464*
X1496Y05548*
X15244Y05883*
X15288Y05928*
X15414*
X15417Y05927*
X1551Y05924*
X15588Y05918*
X15654Y05907*
X15707Y05892*
X15748Y05876*
X15776Y05859*
X15794Y05842*
X15804Y05827*
X1581Y0581*
X15814Y05776*
X15815Y05772*
Y05618*
X16562*
X1696Y0522*
X16993Y05051*
X17002Y05037*
X16926Y04923*
X16911Y04926*
X16735Y04891*
X16585Y04791*
X16485Y04642*
X1648Y04614*
X16113Y04247*
X16025Y04114*
X15993Y03957*
Y03365*
X14328Y017*
X13428*
X13405Y01716*
X13228Y01751*
X13052Y01716*
X12902Y01616*
X12802Y01467*
X12767Y0129*
X12796Y01145*
X12726Y01018*
X11486*
X11467Y0101*
X11459Y01012*
X11323Y00985*
X11188Y01012*
X11179Y0101*
X11161Y01018*
X09293*
X09273Y01009*
X09251*
X09249Y01008*
X09233Y00993*
X09215Y00985*
X09213Y00984*
X09205Y00964*
X09189Y00949*
Y00927*
X09181Y00906*
Y-01009*
X09213Y-01087*
X09291Y-0112*
X13418*
X13496Y-01087*
X13523Y-01024*
X15641*
X15798Y-00992*
X15931Y-00903*
X18797Y01961*
X18899Y0202*
X1938*
X19386Y02005*
X19401Y01893*
X19341Y01853*
X16177Y-0131*
X0294*
X02865Y-01198*
X02716Y-01098*
X0254Y-01063*
X02363Y-01098*
X02214Y-01198*
X02114Y-01347*
X02079Y-01524*
X02114Y-017*
X02214Y-01849*
X02363Y-01949*
X0254Y-01984*
X02716Y-01949*
X02865Y-01849*
X02882Y-01824*
X06014*
X06067Y-01951*
X04205Y-03812*
X02869*
X02862Y-03809*
X02829Y-03808*
X02802Y-03805*
X02777Y-03802*
X02754Y-03797*
X02734Y-03791*
X02716Y-03784*
X027Y-03776*
X02686Y-03767*
X02673Y-03757*
X0266Y-03745*
X02658Y-03743*
X02509Y-03643*
X02333Y-03608*
X02156Y-03643*
X02007Y-03743*
X01907Y-03893*
X01872Y-04069*
X01907Y-04245*
X02007Y-04395*
X02156Y-04495*
X02333Y-0453*
X02509Y-04495*
X02658Y-04395*
X0266Y-04393*
X02673Y-04381*
X02686Y-04371*
X027Y-04362*
X02716Y-04354*
X02734Y-04347*
X02754Y-04341*
X02777Y-04336*
X02802Y-04332*
X02829Y-0433*
X02862Y-04329*
X02869Y-04326*
X04147*
X042Y-04453*
X03597Y-05056*
X02687*
X02658Y-05013*
X02509Y-04913*
X02333Y-04878*
X02156Y-04913*
X02007Y-05013*
X01907Y-05163*
X01872Y-05339*
X01907Y-05515*
X02007Y-05665*
X02156Y-05765*
X02333Y-058*
X02509Y-05765*
X02658Y-05665*
X02722Y-0557*
X03703*
X03802Y-0555*
X03885Y-05494*
X0671Y-02669*
X09181*
Y-03377*
X09213Y-03455*
X09811Y-04052*
X09826Y-04059*
X09837Y-04072*
X09864Y-04074*
X09889Y-04085*
X09951Y-0411*
X10022Y-04182*
X10035Y-04245*
X10135Y-04395*
X10284Y-04495*
X10347Y-04507*
X10419Y-04578*
X10445Y-04641*
X10455Y-04666*
X10458Y-04693*
X10471Y-04703*
X10477Y-04719*
X10519Y-0476*
X10467Y-04865*
X10458Y-04879*
X10284Y-04913*
X10135Y-05013*
X10035Y-05163*
X1Y-05339*
X10035Y-05515*
X10135Y-05665*
X10284Y-05765*
X10461Y-058*
X10637Y-05765*
X10786Y-05665*
X10886Y-05515*
X10922Y-05339*
X10896Y-05213*
X10966Y-05103*
X10988Y-05086*
X13418*
X13496Y-05054*
X13529Y-04976*
Y-03626*
X13526Y-03621*
X13528Y-03615*
X13511Y-03582*
X13496Y-03548*
X13491Y-03546*
X13488Y-0354*
X1339Y-0346*
X13385Y-03458*
X13381Y-03453*
X13345Y-03446*
X13309Y-03435*
X13304Y-03438*
X13299Y-03437*
X13291Y-03438*
X13158Y-03412*
X13045Y-03336*
X12969Y-03223*
X12943Y-0309*
X12969Y-02957*
X13036Y-02858*
X13038Y-02848*
X13045Y-02842*
X13046Y-02808*
X13052Y-02775*
X13112Y-02669*
X19999*
X20097Y-0265*
X2018Y-02594*
X22793Y00017*
X30516*
X30612Y-00045*
X30788Y-00081*
X30965Y-00045*
X31114Y00053*
X31214Y00203*
X31249Y00379*
X31214Y00556*
X31114Y00705*
X30965Y00805*
X30788Y0084*
X30612Y00805*
X30462Y00705*
X30362Y00556*
X30358Y00531*
X29138*
X29089Y00649*
X30217Y01776*
X30334Y01714*
X30327Y01679*
X30362Y01503*
X30462Y01353*
X30612Y01253*
X30788Y01218*
X30965Y01253*
X31114Y01353*
X31214Y01503*
X31249Y01679*
X31214Y01856*
X31114Y02005*
X30965Y02105*
X30788Y0214*
X30754Y02133*
X30691Y0225*
X31093Y02652*
X31291Y0257*
X31527Y0254*
X31762Y0257*
X31982Y02661*
X3217Y02806*
X32315Y02994*
X32406Y03214*
X32437Y03449*
X32406Y03685*
X32315Y03904*
X3217Y04093*
X31982Y04237*
X31762Y04328*
X31527Y04359*
X31291Y04328*
X31072Y04237*
X30884Y04093*
X30739Y03904*
X30648Y03685*
X30617Y03449*
X30648Y03214*
X3073Y03016*
X29831Y02116*
X29705Y02157*
X29685Y02165*
X29669Y02181*
X29647*
X29627Y02189*
X25802*
X25799Y02474*
X25835Y02492*
X25925Y02524*
X26172Y02422*
X2632Y02403*
Y03449*
Y04496*
X26172Y04476*
X25915Y0437*
X25893Y04353*
X25779Y04408*
X2576Y06159*
X25744Y06197*
X25728Y06236*
X25389Y06575*
X25379Y06579*
X25372Y06588*
X25341Y06595*
X25311Y06607*
X25301Y06603*
X2529Y06605*
X2523Y06593*
X25096Y06619*
X24983Y06695*
X2495Y06746*
X2494Y06752*
X24936Y06762*
X24906Y06775*
X24879Y06793*
X24868Y0679*
X24858Y06795*
X23189*
X23178Y0679*
X23167Y06793*
X2314Y06775*
X23111Y06762*
X23106Y06752*
X23097Y06746*
X23063Y06695*
X2295Y06619*
X22817Y06593*
X22683Y06619*
X2257Y06695*
X22537Y06746*
X22527Y06752*
X22523Y06762*
X22493Y06775*
X22466Y06793*
X22455Y0679*
X22445Y06795*
X22076*
X22073Y06794*
X21946Y06877*
Y06893*
X21269*
Y06114*
X21015*
Y06893*
X20338*
Y06741*
X19258*
X19245Y06746*
X19244Y06746*
X19242Y06746*
X19008Y06739*
X18998Y0674*
X18933Y06751*
X1888Y06765*
X18839Y06782*
X18811Y06799*
X18794Y06815*
X18784Y0683*
X18778Y06847*
X18774Y06882*
X18769Y06891*
Y07122*
G37*
G36*
X26574Y04496D02*
Y03576D01*
X27018*
Y04009*
X27097Y03931*
X27249Y038*
X27322Y03747*
X27393Y03702*
X27461Y03665*
X27483Y03655*
X27474Y03724*
X27368Y03981*
X27199Y04201*
X26978Y0437*
X26722Y04476*
X26574Y04496*
G37*
G36*
X29114D02*
Y03576D01*
X30033*
X30014Y03724*
X29908Y03981*
X29739Y04201*
X29518Y0437*
X29262Y04476*
X29114Y04496*
G37*
G36*
X2886D02*
X28712Y04476D01*
X28455Y0437*
X28235Y04201*
X28066Y03981*
X2796Y03724*
X27951Y03655*
X27973Y03665*
X28041Y03702*
X28112Y03747*
X28184Y038*
X28259Y03862*
X28416Y04009*
Y03576*
X2886*
Y04496*
G37*
G36*
X06127D02*
Y03576D01*
X07046*
X07027Y03724*
X06921Y03981*
X06752Y04201*
X06531Y0437*
X06275Y04476*
X06127Y04496*
G37*
G36*
X05873D02*
X05725Y04476D01*
X05468Y0437*
X05248Y04201*
X05079Y03981*
X04973Y03724*
X04953Y03576*
X05873*
Y04496*
G37*
G36*
X15021Y03917D02*
X14369D01*
Y035*
X14542*
X14514Y03497*
X14488Y03488*
X14466Y03473*
X14446Y03452*
X1443Y03425*
X14416Y03391*
X14406Y03352*
X14398Y03306*
X14394Y03255*
X14393Y0324*
X15021*
Y03917*
G37*
G36*
X14115D02*
X13463D01*
Y0324*
X14091*
X14091Y03255*
X14086Y03306*
X14079Y03352*
X14068Y03391*
X14055Y03425*
X14038Y03452*
X14019Y03473*
X13996Y03488*
X13971Y03497*
X13942Y035*
X14115*
Y03917*
G37*
G36*
X2886Y03322D02*
X28416D01*
Y02889*
X28336Y02967*
X28184Y03098*
X28112Y03152*
X28041Y03197*
X27973Y03234*
X27951Y03243*
X2796Y03174*
X28066Y02918*
X28235Y02698*
X28455Y02529*
X28712Y02422*
X2886Y02403*
Y03322*
G37*
G36*
X07046D02*
X06801D01*
X06816Y0313*
X06829Y03041*
X06847Y02959*
X06869Y02885*
X06878Y02863*
X06921Y02918*
X07027Y03174*
X07046Y03322*
G37*
G36*
X06681D02*
X06127D01*
Y02768*
X06681Y03322*
G37*
G36*
X34067Y04359D02*
X33831Y04328D01*
X33612Y04237*
X33424Y04093*
X33279Y03904*
X33188Y03685*
X33157Y03449*
X33188Y03214*
X33279Y02994*
X33424Y02806*
X33612Y02661*
X33831Y0257*
X34067Y0254*
X34302Y0257*
X34522Y02661*
X3471Y02806*
X34855Y02994*
X34946Y03214*
X34977Y03449*
X34946Y03685*
X34855Y03904*
X3471Y04093*
X34522Y04237*
X34302Y04328*
X34067Y04359*
G37*
G36*
X1108D02*
X10844Y04328D01*
X10625Y04237*
X10437Y04093*
X10292Y03904*
X10201Y03685*
X1017Y03449*
X10201Y03214*
X10292Y02994*
X10437Y02806*
X10625Y02661*
X10844Y0257*
X1108Y0254*
X11315Y0257*
X11535Y02661*
X11723Y02806*
X11868Y02994*
X11959Y03214*
X1199Y03449*
X11959Y03685*
X11868Y03904*
X11723Y04093*
X11535Y04237*
X11315Y04328*
X1108Y04359*
G37*
G36*
X0346D02*
X03224Y04328D01*
X03005Y04237*
X02817Y04093*
X02672Y03904*
X02581Y03685*
X0255Y03449*
X02581Y03214*
X02672Y02994*
X02817Y02806*
X03005Y02661*
X03224Y0257*
X0346Y0254*
X03695Y0257*
X03915Y02661*
X04103Y02806*
X04248Y02994*
X04339Y03214*
X0437Y03449*
X04339Y03685*
X04248Y03904*
X04103Y04093*
X03915Y04237*
X03695Y04328*
X0346Y04359*
G37*
G36*
X0092D02*
X00684Y04328D01*
X00465Y04237*
X00277Y04093*
X00132Y03904*
X00041Y03685*
X0001Y03449*
X00041Y03214*
X00132Y02994*
X00277Y02806*
X00465Y02661*
X00684Y0257*
X0092Y0254*
X01155Y0257*
X01375Y02661*
X01563Y02806*
X01708Y02994*
X01799Y03214*
X0183Y03449*
X01799Y03685*
X01708Y03904*
X01563Y04093*
X01375Y04237*
X01155Y04328*
X0092Y04359*
G37*
G36*
X06127Y02646D02*
Y02403D01*
X06275Y02422*
X06531Y02529*
X06587Y02571*
X06565Y0258*
X0649Y02602*
X06408Y0262*
X06319Y02634*
X06223Y02643*
X06127Y02646*
G37*
G36*
X05873Y03322D02*
X04953D01*
X04973Y03174*
X05079Y02918*
X05248Y02698*
X05468Y02529*
X05725Y02422*
X05873Y02403*
Y03322*
G37*
G36*
X30033D02*
X29114D01*
Y02403*
X29262Y02422*
X29518Y02529*
X29739Y02698*
X29908Y02918*
X30014Y03174*
X30033Y03322*
G37*
G36*
X27018D02*
X26574D01*
Y02403*
X26722Y02422*
X26978Y02529*
X27199Y02698*
X27368Y02918*
X27474Y03174*
X27483Y03243*
X27461Y03234*
X27393Y03197*
X27322Y03152*
X27249Y03098*
X27175Y03037*
X27018Y02889*
Y03322*
G37*
G36*
X00127Y01498D02*
Y00127D01*
X01498*
X01482Y00294*
X01396Y00578*
X01256Y00839*
X01068Y01068*
X00839Y01256*
X00578Y01396*
X00294Y01482*
X00127Y01498*
G37*
G36*
X-00127D02*
X-00294Y01482D01*
X-00578Y01396*
X-00839Y01256*
X-01068Y01068*
X-01256Y00839*
X-01396Y00578*
X-01482Y00294*
X-01498Y00127*
X-00127*
Y01498*
G37*
G36*
X34974Y01491D02*
Y00119D01*
X36346*
X36329Y00287*
X36243Y00571*
X36104Y00832*
X35916Y01061*
X35687Y01249*
X35425Y01389*
X35142Y01475*
X34974Y01491*
G37*
G36*
X3472D02*
X34552Y01475D01*
X34269Y01389*
X34008Y01249*
X33779Y01061*
X33591Y00832*
X33451Y00571*
X33365Y00287*
X33348Y00119*
X3472*
Y01491*
G37*
G36*
X-00127Y-00127D02*
X-01498D01*
X-01482Y-00294*
X-01396Y-00578*
X-01256Y-00839*
X-01068Y-01068*
X-00839Y-01256*
X-00578Y-01396*
X-00294Y-01482*
X-00127Y-01498*
Y-00127*
G37*
G36*
X01498D02*
X00127D01*
Y-01498*
X00294Y-01482*
X00578Y-01396*
X00839Y-01256*
X01068Y-01068*
X01256Y-00839*
X01396Y-00578*
X01482Y-00294*
X01498Y-00127*
G37*
G36*
X36346Y-00133D02*
X34974D01*
Y-01505*
X35142Y-01489*
X35425Y-01403*
X35687Y-01263*
X35916Y-01075*
X36104Y-00846*
X36243Y-00585*
X36329Y-00301*
X36346Y-00133*
G37*
G36*
X3472D02*
X33348D01*
X33365Y-00301*
X33451Y-00585*
X33591Y-00846*
X33779Y-01075*
X34008Y-01263*
X34269Y-01403*
X34552Y-01489*
X3472Y-01505*
Y-00133*
G37*
G36*
X3161Y-01766D02*
X31434Y-01801D01*
X31284Y-01901*
X31184Y-0205*
X31149Y-02227*
X31184Y-02403*
X31284Y-02553*
X31434Y-02652*
X3161Y-02688*
X31787Y-02652*
X31936Y-02553*
X32036Y-02403*
X32071Y-02227*
X32036Y-0205*
X31936Y-01901*
X31787Y-01801*
X3161Y-01766*
G37*
G36*
X02333Y-02338D02*
X02156Y-02373D01*
X02007Y-02473*
X01907Y-02623*
X01872Y-02799*
X01907Y-02975*
X02007Y-03125*
X02156Y-03225*
X02333Y-0326*
X02509Y-03225*
X02658Y-03125*
X02758Y-02975*
X02794Y-02799*
X02758Y-02623*
X02658Y-02473*
X02509Y-02373*
X02333Y-02338*
G37*
G36*
X30788Y-02409D02*
X30612Y-02444D01*
X30462Y-02544*
X30362Y-02693*
X30327Y-0287*
X30362Y-03046*
X30462Y-03196*
X30612Y-03295*
X30788Y-0333*
X30965Y-03295*
X31114Y-03196*
X31214Y-03046*
X31249Y-0287*
X31214Y-02693*
X31114Y-02544*
X30965Y-02444*
X30788Y-02409*
G37*
G36*
X3161Y-03066D02*
X31434Y-03101D01*
X31284Y-03201*
X31184Y-0335*
X31149Y-03527*
X31184Y-03703*
X31284Y-03853*
X31434Y-03952*
X3161Y-03987*
X31787Y-03952*
X31936Y-03853*
X32036Y-03703*
X32071Y-03527*
X32036Y-0335*
X31936Y-03201*
X31787Y-03101*
X3161Y-03066*
G37*
G36*
X30788Y-03709D02*
X30612Y-03744D01*
X30462Y-03844*
X30362Y-03993*
X30327Y-0417*
X30362Y-04346*
X30462Y-04496*
X30612Y-04595*
X30788Y-04631*
X30965Y-04595*
X31114Y-04496*
X31214Y-04346*
X31249Y-0417*
X31214Y-03993*
X31114Y-03844*
X30965Y-03744*
X30788Y-03709*
G37*
G36*
X3161Y-04366D02*
X31434Y-04401D01*
X31284Y-04501*
X31184Y-0465*
X31149Y-04827*
X31184Y-05003*
X31284Y-05153*
X31434Y-05252*
X3161Y-05288*
X31787Y-05252*
X31936Y-05153*
X32036Y-05003*
X32071Y-04827*
X32036Y-0465*
X31936Y-04501*
X31787Y-04401*
X3161Y-04366*
G37*
G36*
X30788Y-05009D02*
X30612Y-05044D01*
X30462Y-05144*
X30362Y-05293*
X30327Y-0547*
X30362Y-05646*
X30462Y-05796*
X30612Y-05895*
X30788Y-0593*
X30965Y-05895*
X31114Y-05796*
X31214Y-05646*
X31249Y-0547*
X31214Y-05293*
X31114Y-05144*
X30965Y-05044*
X30788Y-05009*
G37*
G36*
X3161Y-05666D02*
X31434Y-05701D01*
X31284Y-05801*
X31184Y-0595*
X31149Y-06127*
X31184Y-06303*
X31284Y-06453*
X31434Y-06552*
X3161Y-06587*
X31787Y-06552*
X31936Y-06453*
X32036Y-06303*
X32071Y-06127*
X32036Y-0595*
X31936Y-05801*
X31787Y-05701*
X3161Y-05666*
G37*
G36*
X10461Y-06148D02*
X10284Y-06183D01*
X10135Y-06283*
X10035Y-06433*
X1Y-06609*
X10035Y-06785*
X10135Y-06935*
X10284Y-07035*
X10461Y-0707*
X10637Y-07035*
X10786Y-06935*
X10886Y-06785*
X10922Y-06609*
X10886Y-06433*
X10786Y-06283*
X10637Y-06183*
X10461Y-06148*
G37*
G36*
X30788Y-06309D02*
X30612Y-06344D01*
X30462Y-06444*
X30362Y-06593*
X30327Y-0677*
X30362Y-06946*
X30462Y-07096*
X30612Y-07195*
X30788Y-07231*
X30965Y-07195*
X31114Y-07096*
X31214Y-06946*
X31249Y-0677*
X31214Y-06593*
X31114Y-06444*
X30965Y-06344*
X30788Y-06309*
G37*
G36*
X3161Y-06966D02*
X31434Y-07001D01*
X31284Y-07101*
X31184Y-0725*
X31149Y-07427*
X31184Y-07603*
X31284Y-07753*
X31434Y-07852*
X3161Y-07888*
X31787Y-07852*
X31936Y-07753*
X32036Y-07603*
X32071Y-07427*
X32036Y-0725*
X31936Y-07101*
X31787Y-07001*
X3161Y-06966*
G37*
G36*
X10461Y-07418D02*
X10284Y-07453D01*
X10135Y-07553*
X10035Y-07703*
X1Y-07879*
X10035Y-08055*
X10135Y-08205*
X10284Y-08305*
X10461Y-0834*
X10637Y-08305*
X10786Y-08205*
X10886Y-08055*
X10922Y-07879*
X10886Y-07703*
X10786Y-07553*
X10637Y-07453*
X10461Y-07418*
G37*
G36*
X30788Y-07609D02*
X30612Y-07644D01*
X30462Y-07744*
X30362Y-07893*
X30327Y-0807*
X30362Y-08246*
X30462Y-08396*
X30612Y-08495*
X30788Y-0853*
X30965Y-08495*
X31114Y-08396*
X31214Y-08246*
X31249Y-0807*
X31214Y-07893*
X31114Y-07744*
X30965Y-07644*
X30788Y-07609*
G37*
G36*
X3161Y-08266D02*
X31434Y-08301D01*
X31284Y-08401*
X31184Y-0855*
X31149Y-08727*
X31184Y-08903*
X31284Y-09053*
X31434Y-09152*
X3161Y-09188*
X31787Y-09152*
X31936Y-09053*
X32036Y-08903*
X32071Y-08727*
X32036Y-0855*
X31936Y-08401*
X31787Y-08301*
X3161Y-08266*
G37*
G36*
X02333Y-06148D02*
X02156Y-06183D01*
X02007Y-06283*
X01907Y-06433*
X01872Y-06609*
X01907Y-06785*
X02007Y-06935*
X02156Y-07035*
X02333Y-0707*
X02335Y-07069*
X02353Y-0707*
X02369Y-07072*
X02385Y-07076*
X02402Y-07082*
X0242Y-0709*
X02438Y-071*
X02458Y-07112*
X02478Y-07127*
X02499Y-07145*
X02523Y-07167*
X02531Y-0717*
X04665Y-09304*
X04748Y-0936*
X04846Y-0938*
X20598*
X2065Y-09447*
X20585Y-09564*
X2056Y-09559*
X20384Y-09594*
X20234Y-09694*
X20233Y-09696*
X2022Y-09708*
X20207Y-09718*
X20193Y-09726*
X20177Y-09734*
X20159Y-09741*
X20138Y-09747*
X20116Y-09752*
X20091Y-09756*
X20064Y-09758*
X20031Y-09759*
X20023Y-09763*
X0458*
X02894Y-08077*
X02891Y-08069*
X02868Y-08045*
X02851Y-08024*
X02836Y-08004*
X02823Y-07985*
X02813Y-07966*
X02806Y-07948*
X028Y-07932*
X02796Y-07915*
X02794Y-07899*
X02793Y-07881*
X02794Y-07879*
X02758Y-07703*
X02658Y-07553*
X02509Y-07453*
X02333Y-07418*
X02156Y-07453*
X02007Y-07553*
X01907Y-07703*
X01872Y-07879*
X01907Y-08055*
X02007Y-08205*
X02156Y-08305*
X02333Y-0834*
X02335Y-08339*
X02353Y-0834*
X02369Y-08342*
X02385Y-08346*
X02402Y-08352*
X0242Y-0836*
X02438Y-0837*
X02458Y-08382*
X02478Y-08397*
X02499Y-08415*
X02523Y-08437*
X02531Y-0844*
X04292Y-10201*
X04375Y-10257*
X04473Y-10277*
X20023*
X20031Y-1028*
X20064Y-10281*
X20091Y-10283*
X20116Y-10287*
X20138Y-10292*
X20159Y-10298*
X20177Y-10305*
X20193Y-10313*
X20207Y-10322*
X2022Y-10331*
X20233Y-10344*
X20234Y-10346*
X20384Y-10445*
X2056Y-1048*
X20737Y-10445*
X20886Y-10346*
X20986Y-10196*
X21021Y-1002*
X21008Y-09952*
X21125Y-09889*
X21444Y-10208*
X21527Y-10264*
X21625Y-10284*
X31238*
X31284Y-10353*
X31434Y-10452*
X3161Y-10488*
X31787Y-10452*
X31936Y-10353*
X32036Y-10203*
X32071Y-10027*
X32036Y-0985*
X31936Y-09701*
X31787Y-09601*
X3161Y-09566*
X31434Y-09601*
X31312Y-09682*
X31278Y-09679*
X31214Y-09548*
X31214Y-09546*
X31249Y-0937*
X31214Y-09193*
X31114Y-09044*
X30965Y-08944*
X30788Y-08909*
X30612Y-08944*
X30462Y-09044*
X30362Y-09193*
X30327Y-0937*
X30362Y-09546*
X30427Y-09643*
X30362Y-0977*
X21732*
X20903Y-08941*
X2082Y-08885*
X20721Y-08866*
X04953*
X02894Y-06807*
X02891Y-06799*
X02868Y-06775*
X02851Y-06754*
X02836Y-06734*
X02823Y-06715*
X02813Y-06696*
X02806Y-06678*
X028Y-06662*
X02796Y-06645*
X02794Y-06629*
X02793Y-06611*
X02794Y-06609*
X02758Y-06433*
X02658Y-06283*
X02509Y-06183*
X02333Y-06148*
G37*
G36*
X00127Y-08329D02*
Y-09701D01*
X01498*
X01482Y-09533*
X01396Y-0925*
X01256Y-08989*
X01068Y-0876*
X00839Y-08572*
X00578Y-08432*
X00294Y-08346*
X00127Y-08329*
G37*
G36*
X-00127D02*
X-00294Y-08346D01*
X-00578Y-08432*
X-00839Y-08572*
X-01068Y-0876*
X-01256Y-08989*
X-01396Y-0925*
X-01482Y-09533*
X-01498Y-09701*
X-00127*
Y-08329*
G37*
G36*
X34974Y-08336D02*
Y-09708D01*
X36346*
X36329Y-0954*
X36243Y-09257*
X36104Y-08996*
X35916Y-08767*
X35687Y-08579*
X35425Y-08439*
X35142Y-08353*
X34974Y-08336*
G37*
G36*
X3472D02*
X34552Y-08353D01*
X34269Y-08439*
X34008Y-08579*
X33779Y-08767*
X33591Y-08996*
X33451Y-09257*
X33365Y-0954*
X33348Y-09708*
X3472*
Y-08336*
G37*
G36*
X-00127Y-09955D02*
X-01498D01*
X-01482Y-10123*
X-01396Y-10407*
X-01256Y-10668*
X-01068Y-10897*
X-00839Y-11085*
X-00578Y-11224*
X-00294Y-1131*
X-00127Y-11327*
Y-09955*
G37*
G36*
X01498D02*
X00127D01*
Y-11327*
X00294Y-1131*
X00578Y-11224*
X00839Y-11085*
X01068Y-10897*
X01256Y-10668*
X01396Y-10407*
X01482Y-10123*
X01498Y-09955*
G37*
G36*
X36346Y-09962D02*
X34974D01*
Y-11334*
X35142Y-11317*
X35425Y-11231*
X35687Y-11092*
X35916Y-10904*
X36104Y-10675*
X36243Y-10414*
X36329Y-1013*
X36346Y-09962*
G37*
G36*
X3472D02*
X33348D01*
X33365Y-1013*
X33451Y-10414*
X33591Y-10675*
X33779Y-10904*
X34008Y-11092*
X34269Y-11231*
X34552Y-11317*
X3472Y-11334*
Y-09962*
G37*
%LNpcb1-3*%
%LPD*%
G36*
X24904Y06615D02*
X25053Y06515D01*
X2523Y0648*
X25311Y06497*
X2565Y06158*
X25673Y03923*
X25659Y03904*
X25568Y03685*
X25537Y03449*
X25568Y03214*
X25659Y02994*
X25683Y02963*
X25692Y02079*
X29627*
X29676Y01961*
X28647Y00933*
X2252*
X22422Y00913*
X22338Y00858*
X21882Y00401*
X21017*
X20986Y00556*
X20886Y00705*
X20737Y00805*
X2056Y0084*
X20467Y00822*
X2034Y00917*
Y01142*
X20467Y01237*
X2056Y01218*
X20737Y01253*
X20886Y01353*
X20986Y01503*
X21021Y01679*
X20986Y01856*
X20886Y02005*
X20821Y02049*
X20865Y02172*
X21606*
X21631Y02167*
X21656Y02172*
X21883*
Y02399*
X21888Y02424*
X21883Y02449*
Y03076*
X20829*
Y02939*
X20828Y02936*
X20826Y02921*
Y0292*
X20826Y0292*
X20822Y02917*
X20812Y02911*
X20793Y02903*
X20766Y02896*
X2073Y0289*
X20686Y02886*
X20631Y02885*
X20624Y02881*
X2034*
Y04019*
X2018Y04009*
X20125Y04*
X2008Y03989*
X20045Y03977*
X2002Y03962*
X20005Y03946*
X2Y03927*
Y04621*
X20005Y04603*
X2002Y04586*
X20045Y04572*
X2008Y04559*
X20125Y04548*
X2018Y0454*
X20245Y04533*
X2034Y04528*
Y05335*
X20596*
Y05487*
X21794*
Y06403*
X22076Y06684*
X22445*
X22491Y06615*
X2264Y06515*
X22817Y0648*
X22993Y06515*
X23143Y06615*
X23189Y06684*
X24858*
X24904Y06615*
G37*
G36*
X15294Y06093D02*
X15163Y05958D01*
X14872Y05614*
X1481Y05521*
X14765Y05438*
X14738Y05365*
X14728Y05303*
X14736Y05251*
X14761Y05209*
X14082Y05938*
X14121Y05911*
X1417Y059*
X1423Y05908*
X14301Y05932*
X14381Y05975*
X14472Y06034*
X14574Y06111*
X14808Y06317*
X14941Y06447*
X15294Y06093*
G37*
G36*
X19787Y06388D02*
X19792Y06371D01*
X19799Y06354*
X19807Y06336*
X19818Y06318*
X1983Y06299*
X19844Y0628*
X19879Y06241*
X19898Y0622*
X19792Y06114*
X19898Y06008*
X19886Y05995*
X19875Y05982*
X19865Y05969*
X19856Y05956*
X19848Y05943*
X19842Y05929*
X19836Y05916*
X19832Y05902*
X19829Y05888*
X19827Y05874*
X1969Y06012*
X19686Y06008*
X19666Y06028*
X19626Y06062*
X19607Y06076*
X19588Y06088*
X1957Y06099*
X19553Y06108*
X19536Y06114*
X19519Y06119*
X19503Y06123*
X19784Y06404*
X19787Y06388*
G37*
G36*
X18669Y06823D02*
X18684Y0678D01*
X18709Y06743*
X18744Y0671*
X18789Y06683*
X18844Y0666*
X18909Y06643*
X18984Y0663*
X19005Y06628*
X19245Y06636*
Y0587*
X1924Y05918*
X19225Y0596*
X192Y05998*
X19165Y0603*
X1912Y06058*
X19065Y0608*
X19Y06098*
X18955Y06105*
X18909Y06098*
X18844Y0608*
X18789Y06058*
X18744Y0603*
X18709Y05998*
X18684Y0596*
X18669Y05918*
X18664Y0587*
Y0687*
X18669Y06823*
G37*
G36*
X15923Y05787D02*
X15918Y05835D01*
X15903Y05877*
X15878Y05915*
X15843Y05947*
X15798Y05975*
X15742Y05997*
X15677Y06015*
X15601Y06027*
X15516Y06035*
X1542Y06037*
Y06537*
X15516Y0654*
X15601Y06547*
X15677Y0656*
X15742Y06577*
X15798Y066*
X15843Y06627*
X15878Y0666*
X15903Y06697*
X15918Y0674*
X15923Y06787*
Y05787*
G37*
G36*
X13723Y04894D02*
X13718Y04942D01*
X13703Y04984*
X13678Y05022*
X13643Y05054*
X13597Y05082*
X13542Y05104*
X13477Y05122*
X13401Y05134*
X13316Y05142*
X1322Y05144*
Y05644*
X13316Y05647*
X13401Y05654*
X13477Y05667*
X13542Y05684*
X13597Y05707*
X13643Y05734*
X13678Y05767*
X13703Y05804*
X13718Y05847*
X13723Y05894*
Y04894*
G37*
G36*
X20031Y0559D02*
X19988Y05575D01*
X19951Y0555*
X19918Y05514*
X19891Y05469*
X19868Y05414*
X19851Y05348*
X19838Y05273*
X19831Y05188*
X19829Y05104*
X1983Y05026*
X19844Y04866*
X19856Y04801*
X19871Y04746*
X1989Y04701*
X19913Y04666*
X19938Y04641*
X19968Y04626*
X2Y04621*
X19156*
X19189Y04626*
X19218Y04641*
X19244Y04666*
X19266Y04701*
X19285Y04746*
X19301Y04801*
X19313Y04866*
X19321Y04941*
X19327Y05026*
X19328Y05112*
X19327Y05187*
X19308Y05467*
X19298Y05512*
X19288Y05547*
X19275Y05572*
X19261Y05587*
X19245Y05592*
X20078Y05595*
X20031Y0559*
G37*
G36*
X08906Y0464D02*
X08909Y0457D01*
X08917Y045*
X08931Y04429*
X0895Y04359*
X08974Y04288*
X09004Y04217*
X09039Y04146*
X0908Y04075*
X09126Y04004*
X09177Y03933*
X08069Y04096*
X08133Y04146*
X0819Y04199*
X08241Y04255*
X08285Y04313*
X08322Y04374*
X08352Y04438*
X08376Y04504*
X08393Y04573*
X08403Y04644*
X08406Y04718*
X08906Y0464*
G37*
G36*
X20937Y02324D02*
X20934Y02353D01*
X20925Y02378*
X2091Y02401*
X20889Y0242*
X20862Y02437*
X20828Y0245*
X20789Y02461*
X20743Y02468*
X20692Y02473*
X20634Y02474*
Y02774*
X20692Y02776*
X20743Y0278*
X20789Y02788*
X20828Y02798*
X20862Y02812*
X20889Y02828*
X2091Y02848*
X20925Y0287*
X20934Y02896*
X20937Y02924*
Y02324*
G37*
G36*
X2Y02896D02*
X20009Y0287D01*
X20024Y02848*
X20046Y02828*
X20073Y02812*
X20106Y02798*
X20146Y02788*
X20191Y0278*
X20243Y02776*
X203Y02774*
Y02474*
X20243Y02473*
X20191Y02468*
X20146Y02461*
X20106Y0245*
X20073Y02437*
X20046Y0242*
X20024Y02401*
X20009Y02378*
X2Y02353*
X19997Y02324*
Y02924*
X2Y02896*
G37*
G36*
X1316Y00724D02*
X13118Y00586D01*
X13052Y00573*
X12902Y00473*
X12802Y00324*
X12767Y00147*
X12802Y-00028*
X12902Y-00178*
X13052Y-00277*
X13228Y-00313*
X13291Y-003*
X13418Y-00404*
Y-01009*
X09291*
Y00906*
X09293Y00907*
X11161*
X11166Y00904*
X11323Y00872*
X1148Y00904*
X11486Y00907*
X12972*
X12974Y00909*
X1316Y00724*
G37*
G36*
X02602Y-03842D02*
X02623Y-03858D01*
X02647Y-03872*
X02671Y-03885*
X02698Y-03895*
X02727Y-03904*
X02757Y-0391*
X02789Y-03915*
X02823Y-03918*
X02859Y-03919*
Y-04219*
X02823Y-0422*
X02789Y-04223*
X02757Y-04228*
X02727Y-04234*
X02698Y-04243*
X02671Y-04253*
X02647Y-04266*
X02623Y-0428*
X02602Y-04296*
X02583Y-04314*
Y-03824*
X02602Y-03842*
G37*
G36*
X12944Y-02796D02*
X12865Y-02914D01*
X1283Y-0309*
X12865Y-03267*
X12965Y-03416*
X13115Y-03516*
X13291Y-03551*
X1332Y-03545*
X13418Y-03626*
Y-04976*
X1089*
X10555Y-04641*
X10597Y-04503*
X10637Y-04495*
X10786Y-04395*
X10886Y-04245*
X10922Y-04069*
X10886Y-03893*
X10786Y-03743*
X10637Y-03643*
X10461Y-03608*
X10284Y-03643*
X10135Y-03743*
X10035Y-03893*
X10027Y-03933*
X09889Y-03974*
X09291Y-03377*
Y-02669*
X12896*
X12944Y-02796*
G37*
G36*
X02684Y-06639D02*
X02687Y-06666D01*
X02694Y-06692*
X02702Y-06718*
X02714Y-06745*
X02728Y-06771*
X02745Y-06797*
X02764Y-06823*
X02786Y-06849*
X02811Y-06875*
X02599Y-07087*
X02573Y-07063*
X02547Y-07041*
X02521Y-07021*
X02494Y-07004*
X02468Y-0699*
X02442Y-06979*
X02416Y-0697*
X02389Y-06964*
X02363Y-0696*
X02336Y-06959*
X02683Y-06612*
X02684Y-06639*
G37*
G36*
Y-07909D02*
X02687Y-07936D01*
X02694Y-07962*
X02702Y-07988*
X02714Y-08015*
X02728Y-08041*
X02745Y-08067*
X02764Y-08093*
X02786Y-08119*
X02811Y-08145*
X02599Y-08357*
X02573Y-08333*
X02547Y-08311*
X02521Y-08291*
X02494Y-08274*
X02468Y-0826*
X02442Y-08249*
X02416Y-0824*
X02389Y-08234*
X02363Y-0823*
X02336Y-08229*
X02683Y-07882*
X02684Y-07909*
G37*
G36*
X2031Y-10265D02*
X20291Y-10247D01*
X20269Y-1023*
X20246Y-10216*
X20221Y-10204*
X20195Y-10193*
X20166Y-10185*
X20136Y-10178*
X20104Y-10173*
X2007Y-10171*
X20034Y-1017*
Y-0987*
X2007Y-09869*
X20104Y-09866*
X20136Y-09861*
X20166Y-09854*
X20195Y-09846*
X20221Y-09835*
X20246Y-09823*
X20269Y-09809*
X20291Y-09793*
X2031Y-09775*
Y-10265*
G37*
%LNpcb1-4*%
%LPC*%
G36*
X22035Y04878D02*
X21483D01*
Y04401*
X21778*
Y04621*
X21783Y04603*
X21798Y04586*
X21823Y04572*
X21858Y04559*
X21903Y04548*
X21958Y0454*
X22023Y04533*
X22035Y04532*
Y04878*
G37*
G36*
X21229D02*
X20677D01*
Y04535*
X20754Y0454*
X20809Y04548*
X20854Y04559*
X20889Y04572*
X20914Y04586*
X20929Y04603*
X20934Y04621*
Y04401*
X21229*
Y04878*
G37*
G36*
X23657Y04479D02*
X23632Y04476D01*
X23375Y0437*
X23241Y04267*
X2329Y04244*
X23355Y04223*
X23423Y04209*
X23493Y04203*
X23566Y04204*
X23642Y04212*
X23657Y04215*
Y04479*
G37*
G36*
X21229Y04147D02*
X20934D01*
Y03927*
X20929Y03946*
X20914Y03962*
X20889Y03977*
X20854Y03989*
X20809Y04*
X20754Y04009*
X20689Y04016*
X20677Y04016*
Y0367*
X21229*
Y04147*
G37*
G36*
X24157Y04479D02*
Y03699D01*
X24937*
X24934Y03724*
X24828Y03981*
X24659Y04201*
X24438Y0437*
X24182Y04476*
X24157Y04479*
G37*
G36*
X23657Y04127D02*
X23389Y03699D01*
X23657*
Y04127*
G37*
G36*
X22914Y03806D02*
X2288Y03724D01*
X22877Y03699*
X22977*
X22957Y03737*
X22918Y03799*
X22914Y03806*
G37*
G36*
X21778Y04147D02*
X21483D01*
Y0367*
X22035*
Y04014*
X21958Y04009*
X21903Y04*
X21858Y03989*
X21823Y03977*
X21798Y03962*
X21783Y03946*
X21778Y03927*
Y04147*
G37*
G36*
X24937Y03199D02*
X24157D01*
Y02419*
X24182Y02422*
X24438Y02529*
X24659Y02698*
X24828Y02918*
X24934Y03174*
X24937Y03199*
G37*
G36*
X23657D02*
X22877D01*
X2288Y03174*
X22986Y02918*
X23155Y02698*
X23375Y02529*
X23632Y02422*
X23657Y02419*
Y03199*
G37*
G36*
X11323Y00692D02*
X11166Y00661D01*
X11033Y00572*
X10945Y00439*
X10913Y00282*
X10945Y00125*
X11033Y-00006*
X11166Y-00095*
X11323Y-00127*
X1148Y-00095*
X11613Y-00006*
X11702Y00125*
X11733Y00282*
X11702Y00439*
X11613Y00572*
X1148Y00661*
X11323Y00692*
G37*
%LNpcb1-5*%
%LPD*%
G54D10*
X02414Y-01524D02*
X0254D01*
X0237Y-01567D02*
X02414Y-01524D01*
X20552Y01671D02*
X2056Y01679D01*
X19522Y01671D02*
X20552D01*
X16283Y-01567D02*
X19522Y01671D01*
X19303Y02424D02*
X19503Y02624D01*
X19578*
X21356Y04274D02*
D01*
X26193Y03097D02*
Y05978D01*
X2523Y06941D02*
X26193Y05978D01*
X21969Y06941D02*
X2523D01*
X21142Y06114D02*
X21969Y06941D01*
X28753Y00676D02*
X31527Y03449D01*
X2252Y00676D02*
X28753D01*
X19832Y-02011D02*
X2252Y00676D01*
X30683Y00274D02*
X30788Y00379D01*
X22686Y00274D02*
X30683D01*
X19999Y-02412D02*
X22686Y00274D01*
X06604Y-02412D02*
X19999D01*
X03703Y-05313D02*
X06604Y-02412D01*
X0237Y-01567D02*
X16283D01*
X0637Y-02011D02*
X19832D01*
X04312Y-04069D02*
X0637Y-02011D01*
X13609Y02179D02*
X14242Y02812D01*
X0727Y02179D02*
X13609D01*
X06Y03449D02*
X0727Y02179D01*
X19578Y04274D02*
X19578Y04274D01*
X02359Y-05313D02*
X03703D01*
X02333Y-05339D02*
X02359Y-05313D01*
X02333Y-04069D02*
X04312D01*
X17419Y05227D02*
Y05268D01*
X21625Y-10027D02*
X3161D01*
X20721Y-09123D02*
X21625Y-10027D01*
X04846Y-09123D02*
X20721D01*
X04473Y-1002D02*
X2056D01*
X02333Y-06609D02*
X04846Y-09123D01*
X02333Y-07879D02*
X04473Y-1002D01*
X19536Y0637D02*
X19792Y06114D01*
X19578Y059D02*
X19792Y06114D01*
X16317Y0612D02*
Y0637D01*
X14242Y05394D02*
Y05419D01*
X14617Y05794*
X14642*
X14242Y02812D02*
Y04044D01*
X26447Y03449D02*
X28987D01*
X21142Y06114D02*
X21144Y06116D01*
X21431Y02624D02*
X21631Y02424D01*
X21356Y02624D02*
X21431D01*
X21356D02*
D01*
X19578D02*
X21356D01*
X0854Y03449D02*
X08656Y03566D01*
G54D12*
X18562Y02306D02*
Y03703D01*
X15641Y-00614D02*
X18562Y02306D01*
X12466Y-00614D02*
X15641D01*
X13228Y00147D02*
X15006D01*
X17419Y0256*
Y03703*
X13228Y0129D02*
X14498D01*
X16403Y03195*
Y03957D02*
X16911Y04465D01*
X16403Y03195D02*
Y03957D01*
X19133Y04274D02*
X19578D01*
X18562Y03703D02*
X19133Y04274D01*
G54D15*
X19578Y02224D02*
Y02624D01*
X16138Y-01215D02*
X19578Y02224D01*
X03162Y-01215D02*
X16138D01*
X01946Y0D02*
X03162Y-01215D01*
X0Y0D02*
X01946D01*
G54D18*
X21356Y02624D03*
Y04274D03*
X19578Y02624D03*
Y04274D03*
G54D62*
X11323Y01282D03*
Y00282D03*
G54D67*
X16317Y0612D02*
X16567D01*
X18267Y0637D02*
X19536D01*
X19578Y04274D02*
Y059D01*
X16567Y0612D02*
X17419Y05268D01*
X15135Y06287D02*
X16234D01*
X16317Y0637*
X14642Y05794D02*
X15135Y06287D01*
X22828Y04274D02*
X23653Y03449D01*
X21356Y04274D02*
X22828D01*
X19578D02*
X21356D01*
X08656Y03566D02*
Y04846D01*
X09204Y05394*
X14242*
G54D69*
X28987Y03449D03*
X26447D03*
X23907D03*
X31527D03*
X34067D03*
X06D03*
X0346D03*
X0092D03*
X0854D03*
X1108D03*
G54D70*
X34847Y-00006D03*
X0Y0D03*
Y-09828D03*
X34847Y-09835D03*
G54D71*
X0254Y-01524D03*
X30788Y01679D03*
X22817Y06941D03*
X2056Y01679D03*
X19738Y01036D03*
Y-00263D03*
X13228Y00147D03*
X2056Y00379D03*
X13228Y0129D03*
X17419Y03703D03*
X16911Y04465D03*
X30788Y-0287D03*
Y-0417D03*
Y-0547D03*
Y-0677D03*
X17419Y05227D03*
X30788Y-0807D03*
Y-0937D03*
X02333Y-06609D03*
Y-07879D03*
Y-05339D03*
Y-04069D03*
Y-02799D03*
Y-09149D03*
X10461Y-04069D03*
Y-05339D03*
Y-06609D03*
Y-07879D03*
X13291Y-05503D03*
Y-07916D03*
Y-0309D03*
X27643Y06941D03*
X2523D03*
X3161Y-02227D03*
X30788Y00379D03*
X32786Y-06105D03*
X3161Y-10027D03*
Y-08727D03*
Y-07427D03*
Y-06127D03*
Y-04827D03*
Y-03527D03*
X2056Y-1002D03*
G54D72*
X24024Y-0032D03*
X25124D03*
X26224D03*
X27324D03*
X24024Y-0142D03*
X25124D03*
X26224D03*
X27324D03*
X24024Y-0252D03*
X25124D03*
X26224D03*
X27324D03*
X24024Y-0362D03*
X25124D03*
X26224D03*
X27324D03*
X24024Y-0472D03*
X25124D03*
X26224D03*
X27324D03*
X24024Y-0582D03*
X25124D03*
X26224D03*
X27324D03*
X24024Y-0692D03*
X25124D03*
X26224D03*
X27324D03*
X24024Y-0802D03*
X25124D03*
X26224D03*
X27324D03*
X25128Y02892D03*
Y04092D03*
X27828Y04092D03*
X23028Y04692D03*
X22728Y04092D03*
Y05292D03*
X23028Y05892D03*
X35328Y07092D03*
X35828Y06092D03*
X35328Y05092D03*
X35828Y04092D03*
X35328Y03092D03*
X35828Y02092D03*
Y-01907D03*
X35328Y-02907D03*
X35828Y-03907D03*
X35328Y-04907D03*
X35828Y-05907D03*
X35328Y-06907D03*
X35828Y-07907D03*
X34828Y06092D03*
Y02092D03*
Y-01907D03*
X34328Y-02907D03*
X34828Y-03907D03*
X34328Y-04907D03*
X34828Y-05907D03*
X34328Y-06907D03*
X34828Y-07907D03*
X33828Y02092D03*
X33328Y01092D03*
Y-00907D03*
X33828Y-01907D03*
Y-03907D03*
Y-05907D03*
X33328Y-06907D03*
X33828Y-07907D03*
X33328Y-08907D03*
Y-10907D03*
X32828Y06092D03*
X32328Y05092D03*
X32828Y04092D03*
Y00092D03*
X32328Y-06907D03*
X32828Y-07907D03*
Y-09907D03*
X32328Y-10907D03*
X31828Y00092D03*
X31328Y-10907D03*
X30328Y07092D03*
Y-10907D03*
X29328D03*
X27828Y06092D03*
X21328Y-10907D03*
X20328D03*
X19328D03*
X18328D03*
X17328D03*
X16328D03*
X15328D03*
X14328Y07092D03*
Y-10907D03*
X13328Y07092D03*
Y-10907D03*
X12328Y07092D03*
X12828Y04092D03*
X12328Y03092D03*
Y-10907D03*
X11328D03*
X10328D03*
X09828Y04092D03*
X09328Y-10907D03*
X08328D03*
X07328Y07092D03*
X07828Y06092D03*
X07328Y03092D03*
X07828Y02092D03*
X07328Y01092D03*
Y-10907D03*
X06828Y02092D03*
X06328Y01092D03*
X06828Y00092D03*
X06328Y-00907D03*
X06828Y-03907D03*
X06328Y-04907D03*
X06828Y-05907D03*
X06328Y-06907D03*
X06828Y-07907D03*
X06328Y-10907D03*
X05328Y05092D03*
X05828Y02092D03*
X05328Y01092D03*
X05828Y00092D03*
X05328Y-00907D03*
Y-04907D03*
X05828Y-05907D03*
X05328Y-06907D03*
X05828Y-07907D03*
X05328Y-10907D03*
X04328Y07092D03*
X04828Y06092D03*
X04328Y05092D03*
X04828Y04092D03*
Y02092D03*
X04328Y01092D03*
X04828Y00092D03*
X04328Y-10907D03*
X03328Y07092D03*
X03828Y06092D03*
X03328Y05092D03*
X03828Y02092D03*
X03328Y01092D03*
X03828Y00092D03*
X03328Y-10907D03*
X02328Y07092D03*
X02828Y06092D03*
Y02092D03*
X02328Y01092D03*
X02828Y00092D03*
X02328Y-10907D03*
X01328Y07092D03*
X01828Y06092D03*
Y02092D03*
Y-09907D03*
X00328Y07092D03*
X00828Y06092D03*
Y-01907D03*
X00328Y-02907D03*
X00828Y-03907D03*
X00328Y-04907D03*
X00828Y-05907D03*
X00328Y-06907D03*
X00828Y-07907D03*
X-00671Y07092D03*
X-00171Y06092D03*
X-00671Y05092D03*
X-00171Y-01907D03*
X-00671Y-02907D03*
X-00171Y-03907D03*
X-00671Y-04907D03*
X-00171Y-05907D03*
X-00671Y-06907D03*
X-00171Y-07907D03*
X25128Y05292D03*
X12528Y-00707D03*
X11928D03*
X11328D03*
X10128D03*
G54D73*
X16317Y0637D03*
X18267D03*
G54D74*
X21142Y06114D03*
X19792D03*
G54D75*
X14242Y04044D03*
Y05394D03*
M02*