%FSTAX23Y23*%
%MOMM*%
%SFA1B1*%

%IPPOS*%
%ADD16C,0.253999*%
%ADD17C,0.120000*%
%LNpcb1-1*%
%LPD*%
G54D16*
X-14711Y08014D02*
X44216Y07894D01*
X39009Y01925D02*
Y07386D01*
X37485Y03449D02*
X39009Y01925D01*
X40533Y03449*
X37485Y12466D02*
X39009Y1399D01*
X40533Y12466*
X39009Y08529D02*
Y1399D01*
G54D17*
X41295Y05573D02*
Y04973D01*
Y05573D02*
X41667D01*
X41295Y05287D02*
X41524D01*
X41735Y05573D02*
Y04973D01*
Y05573D02*
X41992D01*
X42078Y05545*
X42107Y05516*
X42135Y05459*
Y05402*
X42107Y05345*
X42078Y05316*
X41992Y05287*
X41735*
X41935D02*
X42135Y04973D01*
X42555Y05573D02*
X42269Y05173D01*
X42698*
X42555Y05573D02*
Y04973D01*
X41422Y10399D02*
Y09799D01*
Y10399D02*
X41794D01*
X41422Y10113D02*
X41651D01*
X41862Y10399D02*
Y09799D01*
X41988Y10028D02*
X42331D01*
Y10085*
X42302Y10142*
X42274Y10171*
X42216Y10199*
X42131*
X42074Y10171*
X42016Y10113*
X41988Y10028*
Y09971*
X42016Y09885*
X42074Y09828*
X42131Y09799*
X42216*
X42274Y09828*
X42331Y09885*
X42459Y10199D02*
X42773Y09799D01*
Y10199D02*
X42459Y09799D01*
M02*