%FSTAX23Y23*%
%MOMM*%
%SFA1B1*%

%IPPOS*%
%AMD25*
4,1,4,0.312420,0.292100,-0.378460,0.200660,-0.312420,-0.292100,0.378460,-0.200660,0.312420,0.292100,0.0*
%
%AMD26*
4,1,4,-0.165100,-0.271780,0.228600,-0.220980,0.165100,0.271780,-0.228600,0.220980,-0.165100,-0.271780,0.0*
%
%AMD27*
4,1,4,0.337820,0.264160,-0.358140,0.233680,-0.337820,-0.264160,0.358140,-0.233680,0.337820,0.264160,0.0*
%
%AMD28*
4,1,4,-0.187960,-0.256540,0.208280,-0.241300,0.187960,0.256540,-0.208280,0.241300,-0.187960,-0.256540,0.0*
%
%AMD31*
4,1,4,0.358140,0.233680,-0.337820,0.264160,-0.358140,-0.233680,0.337820,-0.264160,0.358140,0.233680,0.0*
%
%AMD32*
4,1,4,-0.208280,-0.241300,0.187960,-0.256540,0.208280,0.241300,-0.187960,0.256540,-0.208280,-0.241300,0.0*
%
%AMD33*
4,1,4,0.368300,0.218440,-0.325120,0.279400,-0.368300,-0.218440,0.325120,-0.279400,0.368300,0.218440,0.0*
%
%AMD34*
4,1,4,-0.218440,-0.231140,0.175260,-0.264160,0.218440,0.231140,-0.175260,0.264160,-0.218440,-0.231140,0.0*
%
%AMD35*
4,1,4,0.378460,0.200660,-0.312420,0.292100,-0.378460,-0.200660,0.312420,-0.292100,0.378460,0.200660,0.0*
%
%AMD36*
4,1,4,-0.228600,-0.220980,0.165100,-0.271780,0.228600,0.220980,-0.165100,0.271780,-0.228600,-0.220980,0.0*
%
%AMD37*
4,1,4,0.325120,0.279400,-0.368300,0.218440,-0.325120,-0.279400,0.368300,-0.218440,0.325120,0.279400,0.0*
%
%AMD38*
4,1,4,-0.175260,-0.264160,0.218440,-0.231140,0.175260,0.264160,-0.218440,0.231140,-0.175260,-0.264160,0.0*
%
%ADD18R,0.849998X0.699999*%
%ADD19R,1.499997X0.449999*%
%ADD20R,3.999992X8.999982*%
%ADD21R,0.499999X0.250000*%
%ADD22R,0.899998X1.599997*%
%ADD23R,0.699999X0.849998*%
%ADD24R,1.499997X0.599999*%
G04~CAMADD=25~9~0.0~0.0~275.6~196.9~0.0~0.0~0~0.0~0.0~0.0~0.0~0~0.0~0.0~0.0~0.0~0~0.0~0.0~0.0~7.5~298.0~229.0*
%ADD25D25*%
G04~CAMADD=26~9~0.0~0.0~157.5~196.9~0.0~0.0~0~0.0~0.0~0.0~0.0~0~0.0~0.0~0.0~0.0~0~0.0~0.0~0.0~187.5~180.0~213.0*
%ADD26D26*%
G04~CAMADD=27~9~0.0~0.0~275.6~196.9~0.0~0.0~0~0.0~0.0~0.0~0.0~0~0.0~0.0~0.0~0.0~0~0.0~0.0~0.0~2.5~282.0~207.0*
%ADD27D27*%
G04~CAMADD=28~9~0.0~0.0~157.5~196.9~0.0~0.0~0~0.0~0.0~0.0~0.0~0~0.0~0.0~0.0~0.0~0~0.0~0.0~0.0~182.5~164.0~201.0*
%ADD28D28*%
%ADD29R,0.699999X0.499999*%
%ADD30R,0.399999X0.499999*%
G04~CAMADD=31~9~0.0~0.0~275.6~196.9~0.0~0.0~0~0.0~0.0~0.0~0.0~0~0.0~0.0~0.0~0.0~0~0.0~0.0~0.0~357.5~282.0~207.0*
%ADD31D31*%
G04~CAMADD=32~9~0.0~0.0~157.5~196.9~0.0~0.0~0~0.0~0.0~0.0~0.0~0~0.0~0.0~0.0~0.0~0~0.0~0.0~0.0~177.5~164.0~201.0*
%ADD32D32*%
G04~CAMADD=33~9~0.0~0.0~275.6~196.9~0.0~0.0~0~0.0~0.0~0.0~0.0~0~0.0~0.0~0.0~0.0~0~0.0~0.0~0.0~355.0~290.0~219.0*
%ADD33D33*%
G04~CAMADD=34~9~0.0~0.0~157.5~196.9~0.0~0.0~0~0.0~0.0~0.0~0.0~0~0.0~0.0~0.0~0.0~0~0.0~0.0~0.0~175.0~172.0~207.0*
%ADD34D34*%
G04~CAMADD=35~9~0.0~0.0~275.6~196.9~0.0~0.0~0~0.0~0.0~0.0~0.0~0~0.0~0.0~0.0~0.0~0~0.0~0.0~0.0~352.5~298.0~229.0*
%ADD35D35*%
G04~CAMADD=36~9~0.0~0.0~157.5~196.9~0.0~0.0~0~0.0~0.0~0.0~0.0~0~0.0~0.0~0.0~0.0~0~0.0~0.0~0.0~172.5~180.0~213.0*
%ADD36D36*%
G04~CAMADD=37~9~0.0~0.0~275.6~196.9~0.0~0.0~0~0.0~0.0~0.0~0.0~0~0.0~0.0~0.0~0.0~0~0.0~0.0~0.0~5.0~290.0~219.0*
%ADD37D37*%
G04~CAMADD=38~9~0.0~0.0~157.5~196.9~0.0~0.0~0~0.0~0.0~0.0~0.0~0~0.0~0.0~0.0~0.0~0~0.0~0.0~0.0~185.0~172.0~207.0*
%ADD38D38*%
%LNpcb1-1*%
%LPD*%
G54D18*
X32786Y-03091D03*
Y-04741D03*
X33802Y06941D03*
Y05291D03*
X31262Y06941D03*
Y05291D03*
X28849D03*
Y06941D03*
X26436Y05291D03*
Y06941D03*
X24023Y05291D03*
Y06941D03*
X2161Y05291D03*
Y06941D03*
X11069Y05291D03*
Y06941D03*
X06243D03*
Y05291D03*
X08656Y06941D03*
Y05291D03*
G54D19*
X21924Y01679D03*
Y01029D03*
Y00379D03*
Y-0027D03*
Y-0092D03*
Y-0157D03*
Y-0222D03*
Y-0287D03*
Y-0352D03*
Y-0417D03*
Y-0482D03*
Y-0547D03*
Y-0612D03*
Y-0677D03*
Y-0742D03*
Y-0807D03*
Y-0872D03*
Y-0937D03*
Y-1002D03*
X29424Y01679D03*
Y01029D03*
Y00379D03*
Y-0027D03*
Y-0092D03*
Y-0157D03*
Y-0222D03*
Y-0287D03*
Y-0352D03*
Y-0417D03*
Y-0482D03*
Y-0547D03*
Y-0612D03*
Y-0677D03*
Y-0742D03*
Y-0807D03*
Y-0872D03*
Y-0937D03*
Y-1002D03*
G54D20*
X25674Y-0417D03*
G54D21*
X12273Y00032D03*
Y00532D03*
Y01032D03*
Y01532D03*
X10373D03*
Y01032D03*
Y00532D03*
Y00032D03*
G54D22*
X11323Y00782D03*
G54D23*
X13291Y-01884D03*
X11641D03*
X13291Y-04297D03*
X11641D03*
X13291Y-09123D03*
X11641D03*
X13291Y-0671D03*
X11641D03*
G54D24*
X09097Y-09149D03*
Y-07879D03*
Y-06609D03*
Y-05339D03*
Y-04069D03*
Y-02799D03*
Y-01529D03*
X03697Y-09149D03*
Y-07879D03*
Y-06609D03*
Y-05339D03*
Y-04069D03*
Y-02799D03*
Y-01529D03*
G54D25*
X0377Y63723D03*
X0262Y63572D03*
G54D26*
X01708Y63451D03*
X04682Y63843D03*
G54D27*
X11903Y64308D03*
X10744Y64257D03*
G54D28*
X09825Y64217D03*
X12822Y64348D03*
G54D29*
X15967Y64409D03*
X14807D03*
X19904D03*
X18744D03*
G54D30*
X13887Y64409D03*
X16887D03*
X17824D03*
X20824D03*
G54D31*
X23841Y64257D03*
X22682Y64308D03*
G54D32*
X21763Y64348D03*
X2476Y64217D03*
G54D33*
X27776Y64105D03*
X2662Y64206D03*
G54D34*
X25704Y64286D03*
X28693Y64025D03*
G54D35*
X3171Y63699D03*
X3056Y6385D03*
G54D36*
X29648Y6397D03*
X32622Y63578D03*
G54D37*
X07837Y64079D03*
X06681Y63978D03*
G54D38*
X05765Y63898D03*
X08754Y64159D03*
M02*