%FSTAX23Y23*%
%MOMM*%
%SFA1B1*%

%IPPOS*%
%ADD64C,0.100000*%
%ADD81C,0.050000*%
%LNpcb1-1*%
%LPD*%
G54D64*
X32386Y-03916D02*
X33186D01*
X32786Y-04316D02*
Y-03516D01*
X25174Y-0417D02*
X26174D01*
X25674Y-0467D02*
Y-0367D01*
X33402Y06116D02*
X34202D01*
X33802Y05716D02*
Y06516D01*
X30862Y06116D02*
X31662D01*
X31262Y05716D02*
Y06516D01*
X28449Y06116D02*
X29249D01*
X28849Y05716D02*
Y06516D01*
X26036Y06116D02*
X26836D01*
X26436Y05716D02*
Y06516D01*
X23623Y06116D02*
X24423D01*
X24023Y05716D02*
Y06516D01*
X2121Y06116D02*
X2201D01*
X2161Y05716D02*
Y06516D01*
X10823Y00782D02*
X11823D01*
X11323Y00282D02*
Y01282D01*
X12066Y-01884D02*
X12866D01*
X12466Y-02284D02*
Y-01484D01*
X12066Y-04297D02*
X12866D01*
X12466Y-04697D02*
Y-03897D01*
X05897Y-05339D02*
X06897D01*
X06397Y-05839D02*
Y-04839D01*
X12066Y-09123D02*
X12866D01*
X12466Y-09523D02*
Y-08723D01*
X12066Y-0671D02*
X12866D01*
X12466Y-0711D02*
Y-0631D01*
X11069Y05716D02*
Y06516D01*
X10669Y06116D02*
X11469D01*
X21356Y03049D02*
Y03849D01*
X20956Y03449D02*
X21756D01*
X19578Y03049D02*
Y03849D01*
X19178Y03449D02*
X19978D01*
X17292Y0587D02*
Y0687D01*
X16792Y0637D02*
X17792D01*
X20467Y05614D02*
Y06614D01*
X19967Y06114D02*
X20967D01*
X13742Y04719D02*
X14742D01*
X14242Y04219D02*
Y05219D01*
X06243Y05716D02*
Y06516D01*
X05843Y06116D02*
X06643D01*
X08656Y05716D02*
Y06516D01*
X08256Y06116D02*
X09056D01*
G54D81*
X32086Y-05366D02*
X33486D01*
X32086Y-02466D02*
X33486D01*
X32086Y-05366D02*
Y-02466D01*
X33486Y-05366D02*
Y-02466D01*
X20924Y-1072D02*
Y02379D01*
X30424Y-1072D02*
Y02379D01*
X20924D02*
X30424D01*
X20924Y-1072D02*
X30424D01*
X33102Y04666D02*
X34502D01*
X33102Y07566D02*
X34502D01*
X33102Y04666D02*
Y07566D01*
X34502Y04666D02*
Y07566D01*
X30562Y04666D02*
X31962D01*
X30562Y07566D02*
X31962D01*
X30562Y04666D02*
Y07566D01*
X31962Y04666D02*
Y07566D01*
X28149D02*
X29549D01*
X28149Y04666D02*
X29549D01*
Y07566*
X28149Y04666D02*
Y07566D01*
X25736D02*
X27136D01*
X25736Y04666D02*
X27136D01*
Y07566*
X25736Y04666D02*
Y07566D01*
X23323D02*
X24723D01*
X23323Y04666D02*
X24723D01*
Y07566*
X23323Y04666D02*
Y07566D01*
X2091D02*
X2231D01*
X2091Y04666D02*
X2231D01*
Y07566*
X2091Y04666D02*
Y07566D01*
X12923Y-00817D02*
Y02382D01*
X09723Y-00817D02*
Y02382D01*
Y-00817D02*
X12923D01*
X09723Y02382D02*
X12923D01*
X11016Y-01184D02*
X13916D01*
X11016Y-02584D02*
X13916D01*
X11016D02*
Y-01184D01*
X13916Y-02584D02*
Y-01184D01*
X11016Y-03597D02*
X13916D01*
X11016Y-04997D02*
X13916D01*
X11016D02*
Y-03597D01*
X13916Y-04997D02*
Y-03597D01*
X10072Y-09939D02*
Y-00739D01*
X02722Y-09939D02*
Y-00739D01*
Y-09939D02*
X10072D01*
X02722Y-00739D02*
X10072D01*
X11016Y-08423D02*
X13916D01*
X11016Y-09823D02*
X13916D01*
X11016D02*
Y-08423D01*
X13916Y-09823D02*
Y-08423D01*
X11016Y-0601D02*
X13916D01*
X11016Y-0741D02*
X13916D01*
X11016D02*
Y-0601D01*
X13916Y-0741D02*
Y-0601D01*
X11769Y04666D02*
Y07566D01*
X10369Y04666D02*
Y07566D01*
X11769*
X10369Y04666D02*
X11769D01*
X20656Y01999D02*
Y04899D01*
X22056Y01999D02*
Y04899D01*
X20656D02*
X22056D01*
X20656Y01999D02*
X22056D01*
X18878D02*
Y04899D01*
X20278Y01999D02*
Y04899D01*
X18878D02*
X20278D01*
X18878Y01999D02*
X20278D01*
X18942Y0547D02*
Y0727D01*
X15642Y0547D02*
Y0727D01*
X18942*
X15642Y0547D02*
X18942D01*
X18592Y07164D02*
X22342D01*
X18592Y05064D02*
X22342D01*
Y07164*
X18592Y05064D02*
Y07164D01*
X15292Y02844D02*
Y06594D01*
X13192Y02844D02*
Y06594D01*
Y02844D02*
X15292D01*
X13192Y06594D02*
X15292D01*
X05543Y04666D02*
Y07566D01*
X06943Y04666D02*
Y07566D01*
X05543Y04666D02*
X06943D01*
X05543Y07566D02*
X06943D01*
X07956Y04666D02*
Y07566D01*
X09356Y04666D02*
Y07566D01*
X07956Y04666D02*
X09356D01*
X07956Y07566D02*
X09356D01*
M02*