%FSTAX23Y23*%
%MOMM*%
%SFA1B1*%

%IPPOS*%
%ADD10C,0.299999*%
%ADD11C,0.250000*%
%ADD12C,0.599999*%
%ADD13C,0.999998*%
%ADD14C,0.180000*%
%ADD15C,0.200000*%
%ADD16C,0.253999*%
%ADD17C,0.120000*%
%LNpcb1-1*%
%LPD*%
G36*
X17637Y55381D02*
X19287Y52725D01*
X18691*
X17481Y54727*
X17471Y54737*
X17451Y54776*
X17432Y54824*
X17393Y54883*
X17383Y54903*
X17373Y54932*
X17344Y54991*
X17324Y55039*
X17305*
X17295Y55029*
X17285Y55*
X17256Y54951*
X17227Y54893*
X17217Y54883*
X17197Y54844*
X17178Y54785*
X17139Y54727*
X15899Y52725*
X15303*
X17012Y55371*
X1542Y57988*
X16016*
X17139Y56064*
X17149Y56055*
X17168Y56016*
X17197Y55957*
X17237Y55889*
X17246Y55869*
X17266Y5583*
X17295Y55772*
X17334Y55703*
X17344*
Y55713*
X17354Y55723*
X17373Y55772*
X17403Y5583*
X17442Y55898*
X17451Y55918*
X17481Y55957*
X1751Y56016*
X17539Y56074*
X18691Y57988*
X19248*
X17637Y55381*
G37*
G36*
X29041Y57978D02*
X29148Y57968D01*
X29285Y57949*
X29431Y57929*
X29578Y5791*
X2991Y57832*
X30086Y57773*
X30252Y57715*
X30418Y57636*
X30584Y57549*
X3073Y57451*
X30867Y57334*
X30877Y57324*
X30896Y57304*
X30935Y57265*
X30974Y57217*
X31023Y57148*
X31082Y5706*
X3115Y56963*
X31218Y56855*
X31277Y56728*
X31345Y56582*
X31404Y56426*
X31453Y5626*
X31492Y56064*
X31531Y55869*
X3155Y55654*
X3156Y5542*
Y5541*
Y55391*
Y55361*
Y55322*
X3155Y55264*
Y55205*
X3154Y55059*
X31511Y54883*
X31482Y54698*
X31433Y54512*
X31365Y54317*
Y54307*
X31355Y54297*
X31345Y54268*
X31326Y54229*
X31287Y54141*
X31218Y54024*
X3114Y53887*
X31042Y53741*
X30925Y53594*
X30798Y53458*
X30779Y53438*
X3073Y53399*
X30662Y5334*
X30554Y53262*
X30427Y53174*
X30271Y53077*
X30105Y52989*
X2992Y52911*
X2991*
X299Y52901*
X29871Y52891*
X29832Y52881*
X29783Y52872*
X29724Y52852*
X29578Y52823*
X29412Y52784*
X29207Y52755*
X28992Y52735*
X28758Y52725*
X2744*
Y57988*
X28943*
X29041Y57978*
G37*
G36*
X26219Y57539D02*
X24149D01*
Y55606*
X26073*
Y55166*
X24149*
Y53174*
X26346*
Y52725*
X23661*
Y57988*
X26219*
Y57539*
G37*
G36*
X20654Y53174D02*
X22773D01*
Y52725*
X20166*
Y57988*
X20654*
Y53174*
G37*
G36*
X1461Y57539D02*
X1254D01*
Y55606*
X14464*
Y55166*
X1254*
Y53174*
X14737*
Y52725*
X12052*
Y57988*
X1461*
Y57539*
G37*
G36*
X09045Y53174D02*
X11163D01*
Y52725*
X08557*
Y57988*
X09045*
Y53174*
G37*
G36*
X07541Y57539D02*
X05461D01*
Y55557*
X07385*
Y55108*
X05461*
Y52725*
X04973*
Y57988*
X07541*
Y57539*
G37*
%LNpcb1-2*%
%LPC*%
G36*
X28787Y57539D02*
X27928D01*
Y53174*
X28816*
X28924Y53184*
X2906Y53194*
X29207Y53213*
X29373Y53233*
X29539Y53272*
X29705Y53321*
X29715*
X29724Y53331*
X29773Y5335*
X29861Y53379*
X29959Y53428*
X30066Y53487*
X30193Y53565*
X3031Y53653*
X30427Y5375*
X30437Y5376*
X30476Y53799*
X30535Y53858*
X30603Y53946*
X30671Y54043*
X3075Y54161*
X30818Y54297*
X30886Y54444*
Y54453*
X30896Y54463*
X30916Y54522*
X30935Y5461*
X30964Y54727*
X30994Y54864*
X31023Y55029*
X31033Y55215*
X31042Y5541*
Y5542*
Y5543*
Y55459*
Y55498*
X31033Y55606*
X31003Y55742*
X30974Y55908*
X30925Y56084*
X30857Y56279*
X30759Y56475*
X30642Y5667*
X30496Y56865*
X3031Y57041*
X30203Y57129*
X30095Y57207*
X29968Y57275*
X29832Y57344*
X29685Y57402*
X29529Y57451*
X29363Y5749*
X29187Y57519*
X28992Y57529*
X28787Y57539*
G37*
%LNpcb1-3*%
%LPD*%
G54D10*
X3642Y01936D02*
D01*
D01*
G75*
G03X36516Y-01868I-01572J-01943D01*
G74*G01*
X36452Y-07918D02*
D01*
D01*
G75*
G03X32898Y-114I-01605J-01916D01*
G74*G01*
X01904Y-11448D02*
D01*
D01*
G75*
G03X-01499Y-07828I-01904J01619D01*
G74*G01*
X-0147Y-02021D02*
D01*
D01*
G75*
G03X-01499Y01999I01470J02021D01*
G74*G01*
G54D11*
X22049Y02454D02*
D01*
D01*
G75*
G03X21799I-00124J0D01*
G74*G01*
D01*
G75*
G03X22049I00125J0D01*
G74*G01*
X12948Y-00717D02*
D01*
D01*
G75*
G03X12698I-00124J0D01*
G74*G01*
D01*
G75*
G03X12948I00125J0D01*
G74*G01*
X09222Y-09999D02*
D01*
D01*
G75*
G03X08972I-00125J0D01*
G74*G01*
D01*
G75*
G03X09222I00125J0D01*
G74*G01*
G54D12*
X07247Y-08689D02*
D01*
D01*
G75*
G03X06647I-00300J0D01*
G74*G01*
D01*
G75*
G03X07247I00299J0D01*
G74*G01*
G54D13*
X25801Y47638D02*
D01*
D01*
G75*
G03X33301Y55138I0J07499D01*
G74*G01*
X01537D02*
D01*
D01*
G75*
G03X09037Y47638I07500J0D01*
G74*G01*
X32142Y60906D02*
D01*
D01*
G75*
G03X02406Y60802I-14468J-113457D01*
G74*G01*
X02264Y60783D02*
D01*
D01*
G75*
G03X01549Y55133I22379J-05701D01*
G74*G01*
X33291Y55041D02*
D01*
D01*
G75*
G03X32307Y60812I-23078J-00966D01*
G74*G01*
X09037Y47638D02*
X25801D01*
G54D14*
X33486Y-05366D02*
Y-02466D01*
X32086Y-05366D02*
Y-02466D01*
X33486*
X32086Y-05366D02*
X33486D01*
X34502Y04666D02*
Y07566D01*
X33102Y04666D02*
Y07566D01*
X34502*
X33102Y04666D02*
X34502D01*
X31962D02*
Y07566D01*
X30562Y04666D02*
Y07566D01*
X31962*
X30562Y04666D02*
X31962D01*
X28149D02*
Y07566D01*
X29549Y04666D02*
Y07566D01*
X28149Y04666D02*
X29549D01*
X28149Y07566D02*
X29549D01*
X25736Y04666D02*
Y07566D01*
X27136Y04666D02*
Y07566D01*
X25736Y04666D02*
X27136D01*
X25736Y07566D02*
X27136D01*
X23323Y04666D02*
Y07566D01*
X24723Y04666D02*
Y07566D01*
X23323Y04666D02*
X24723D01*
X23323Y07566D02*
X24723D01*
X2091Y04666D02*
Y07566D01*
X2231Y04666D02*
Y07566D01*
X2091Y04666D02*
X2231D01*
X2091Y07566D02*
X2231D01*
X13916Y-02584D02*
Y-01184D01*
X11016Y-02584D02*
Y-01184D01*
Y-02584D02*
X13916D01*
X11016Y-01184D02*
X13916D01*
Y-04997D02*
Y-03597D01*
X11016Y-04997D02*
Y-03597D01*
Y-04997D02*
X13916D01*
X11016Y-03597D02*
X13916D01*
Y-09823D02*
Y-08423D01*
X11016Y-09823D02*
Y-08423D01*
Y-09823D02*
X13916D01*
X11016Y-08423D02*
X13916D01*
Y-0741D02*
Y-0601D01*
X11016Y-0741D02*
Y-0601D01*
Y-0741D02*
X13916D01*
X11016Y-0601D02*
X13916D01*
X10369Y04666D02*
X11769D01*
X10369Y07566D02*
X11769D01*
X10369Y04666D02*
Y07566D01*
X11769Y04666D02*
Y07566D01*
X05543D02*
X06943D01*
X05543Y04666D02*
X06943D01*
Y07566*
X05543Y04666D02*
Y07566D01*
X07956D02*
X09356D01*
X07956Y04666D02*
X09356D01*
Y07566*
X07956Y04666D02*
Y07566D01*
G54D15*
X33111Y-04016D02*
Y-03816D01*
X32461Y-04016D02*
Y-03816D01*
X22974Y-1047D02*
Y02129D01*
X28374Y-1047D02*
Y02129D01*
X22974D02*
X28374D01*
X22974Y-1047D02*
X28374D01*
X34127Y06016D02*
Y06216D01*
X33477Y06016D02*
Y06216D01*
X31587Y06016D02*
Y06216D01*
X30937Y06016D02*
Y06216D01*
X28524Y06016D02*
Y06216D01*
X29174Y06016D02*
Y06216D01*
X26111Y06016D02*
Y06216D01*
X26761Y06016D02*
Y06216D01*
X23698Y06016D02*
Y06216D01*
X24348Y06016D02*
Y06216D01*
X21285Y06016D02*
Y06216D01*
X21935Y06016D02*
Y06216D01*
X12366Y-02209D02*
X12566D01*
X12366Y-01559D02*
X12566D01*
X12366Y-04622D02*
X12566D01*
X12366Y-03972D02*
X12566D01*
X07947Y-09689D02*
Y-00989D01*
X04847Y-09689D02*
Y-00989D01*
Y-09689D02*
X07947D01*
X04847Y-00989D02*
X07947D01*
X12366Y-09448D02*
X12566D01*
X12366Y-08798D02*
X12566D01*
X12366Y-07035D02*
X12566D01*
X12366Y-06385D02*
X12566D01*
X10744Y06016D02*
Y06216D01*
X11394Y06016D02*
Y06216D01*
X06568Y06016D02*
Y06216D01*
X05918Y06016D02*
Y06216D01*
X08981Y06016D02*
Y06216D01*
X08331Y06016D02*
Y06216D01*
G54D16*
X0475Y63331D02*
X04751Y63326D01*
X12844Y63832D02*
X12845Y63826D01*
X16887Y63887D02*
Y63893D01*
X20824Y63887D02*
Y63893D01*
X24737Y63695D02*
X24737Y63701D01*
X28647Y63505D02*
X28648Y6351D01*
X32554Y63061D02*
X32555Y63067D01*
X08799Y63645D02*
X08799Y63639D01*
G54D17*
X32878Y0665D02*
X32278D01*
X32878D02*
Y06393D01*
X3285Y06307*
X32821Y06278*
X32764Y0625*
X32707*
X3265Y06278*
X32621Y06307*
X32592Y06393*
Y0665*
Y0645D02*
X32278Y0625D01*
X32878Y0583D02*
X32478Y06115D01*
Y05687*
X32878Y0583D02*
X32278D01*
X35418Y0665D02*
X34818D01*
X35418D02*
Y06393D01*
X3539Y06307*
X35361Y06278*
X35304Y0625*
X35247*
X3519Y06278*
X35161Y06307*
X35132Y06393*
Y0665*
Y0645D02*
X34818Y0625D01*
X35418Y06058D02*
Y05744D01*
X3519Y05916*
Y0583*
X35161Y05773*
X35132Y05744*
X35047Y05716*
X3499*
X34904Y05744*
X34847Y05801*
X34818Y05887*
Y05973*
X34847Y06058*
X34875Y06087*
X34933Y06115*
X12558Y0665D02*
X11958D01*
X12558D02*
Y06393D01*
X1253Y06307*
X12501Y06278*
X12444Y0625*
X12387*
X1233Y06278*
X12301Y06307*
X12272Y06393*
Y0665*
Y0645D02*
X11958Y0625D01*
X12415Y06087D02*
X12444D01*
X12501Y06058*
X1253Y0603*
X12558Y05973*
Y05858*
X1253Y05801*
X12501Y05773*
X12444Y05744*
X12387*
X1233Y05773*
X12244Y0583*
X11958Y06115*
Y05716*
X32507Y-05602D02*
Y-06202D01*
Y-05602D02*
X32764D01*
X3285Y-0563*
X32878Y-05659*
X32907Y-05716*
Y-05773*
X32878Y-0583*
X3285Y-05859*
X32764Y-05887*
X32507*
X32707D02*
X32907Y-06202D01*
X33041Y-05716D02*
X33098Y-05687D01*
X33184Y-05602*
Y-06202*
X10028Y06602D02*
X10085Y06631D01*
X10142Y06688*
X10171Y06745*
Y06859*
X10142Y06916*
X10085Y06974*
X10028Y07002*
X09942Y07031*
X09799*
X09713Y07002*
X09656Y06974*
X09599Y06916*
X09571Y06859*
Y06745*
X09599Y06688*
X09656Y06631*
X09713Y06602*
X10056Y06434D02*
X10085Y06377D01*
X10171Y06291*
X09571*
X10171Y05708D02*
X09771Y05994D01*
Y05565*
X10171Y05708D02*
X09571D01*
X07615Y06602D02*
X07672Y06631D01*
X07729Y06688*
X07758Y06745*
Y06859*
X07729Y06916*
X07672Y06974*
X07615Y07002*
X07529Y07031*
X07386*
X073Y07002*
X07243Y06974*
X07186Y06916*
X07158Y06859*
Y06745*
X07186Y06688*
X07243Y06631*
X073Y06602*
X07643Y06434D02*
X07672Y06377D01*
X07758Y06291*
X07158*
X07758Y05937D02*
Y05622D01*
X07529Y05794*
Y05708*
X075Y05651*
X07472Y05622*
X07386Y05594*
X07329*
X07243Y05622*
X07186Y0568*
X07158Y05765*
Y05851*
X07186Y05937*
X07215Y05965*
X07272Y05994*
X14647Y-06507D02*
X14619Y-06449D01*
X14562Y-06392*
X14505Y-06364*
X1439*
X14333Y-06392*
X14276Y-06449*
X14247Y-06507*
X14219Y-06592*
Y-06735*
X14247Y-06821*
X14276Y-06878*
X14333Y-06935*
X1439Y-06964*
X14505*
X14562Y-06935*
X14619Y-06878*
X14647Y-06821*
X15187Y-06564D02*
X15159Y-06649D01*
X15102Y-06707*
X15016Y-06735*
X14987*
X14902Y-06707*
X14844Y-06649*
X14816Y-06564*
Y-06535*
X14844Y-06449*
X14902Y-06392*
X14987Y-06364*
X15016*
X15102Y-06392*
X15159Y-06449*
X15187Y-06564*
Y-06707*
X15159Y-06849*
X15102Y-06935*
X15016Y-06964*
X14959*
X14873Y-06935*
X14844Y-06878*
X14647Y-0892D02*
X14619Y-08862D01*
X14562Y-08805*
X14505Y-08777*
X1439*
X14333Y-08805*
X14276Y-08862*
X14247Y-0892*
X14219Y-09005*
Y-09148*
X14247Y-09234*
X14276Y-09291*
X14333Y-09348*
X1439Y-09377*
X14505*
X14562Y-09348*
X14619Y-09291*
X14647Y-09234*
X14959Y-08777D02*
X14873Y-08805D01*
X14844Y-08862*
Y-0892*
X14873Y-08977*
X1493Y-09005*
X15044Y-09034*
X1513Y-09062*
X15187Y-0912*
X15216Y-09177*
Y-09262*
X15187Y-0932*
X15159Y-09348*
X15073Y-09377*
X14959*
X14873Y-09348*
X14844Y-0932*
X14816Y-09262*
Y-09177*
X14844Y-0912*
X14902Y-09062*
X14987Y-09034*
X15102Y-09005*
X15159Y-08977*
X15187Y-0892*
Y-08862*
X15159Y-08805*
X15073Y-08777*
X14959*
X14647Y-04195D02*
X14619Y-04138D01*
X14562Y-04081*
X14505Y-04052*
X1439*
X14333Y-04081*
X14276Y-04138*
X14247Y-04195*
X14219Y-04281*
Y-04424*
X14247Y-04509*
X14276Y-04567*
X14333Y-04624*
X1439Y-04652*
X14505*
X14562Y-04624*
X14619Y-04567*
X14647Y-04509*
X15216Y-04052D02*
X1493Y-04652D01*
X14816Y-04052D02*
X15216D01*
X14647Y-01782D02*
X14619Y-01725D01*
X14562Y-01668*
X14505Y-01639*
X1439*
X14333Y-01668*
X14276Y-01725*
X14247Y-01782*
X14219Y-01868*
Y-02011*
X14247Y-02096*
X14276Y-02154*
X14333Y-02211*
X1439Y-02239*
X14505*
X14562Y-02211*
X14619Y-02154*
X14647Y-02096*
X15159Y-01725D02*
X1513Y-01668D01*
X15044Y-01639*
X14987*
X14902Y-01668*
X14844Y-01754*
X14816Y-01896*
Y-02039*
X14844Y-02154*
X14902Y-02211*
X14987Y-02239*
X15016*
X15102Y-02211*
X15159Y-02154*
X15187Y-02068*
Y-02039*
X15159Y-01954*
X15102Y-01896*
X15016Y-01868*
X14987*
X14902Y-01896*
X14844Y-01954*
X14816Y-02039*
X22956Y06348D02*
X23013Y06377D01*
X23071Y06434*
X23099Y06491*
Y06605*
X23071Y06662*
X23013Y0672*
X22956Y06748*
X22871Y06777*
X22728*
X22642Y06748*
X22585Y0672*
X22528Y06662*
X22499Y06605*
Y06491*
X22528Y06434*
X22585Y06377*
X22642Y06348*
X23099Y05894D02*
X22699Y0618D01*
Y05751*
X23099Y05894D02*
X22499D01*
X25369Y06348D02*
X25426Y06377D01*
X25484Y06434*
X25512Y06491*
Y06605*
X25484Y06662*
X25426Y0672*
X25369Y06748*
X25284Y06777*
X25141*
X25055Y06748*
X24998Y0672*
X24941Y06662*
X24912Y06605*
Y06491*
X24941Y06434*
X24998Y06377*
X25055Y06348*
X25512Y06123D02*
Y05808D01*
X25284Y0598*
Y05894*
X25255Y05837*
X25226Y05808*
X25141Y0578*
X25084*
X24998Y05808*
X24941Y05865*
X24912Y05951*
Y06037*
X24941Y06123*
X24969Y06151*
X25027Y0618*
X30195Y06348D02*
X30252Y06377D01*
X3031Y06434*
X30338Y06491*
Y06605*
X3031Y06662*
X30252Y0672*
X30195Y06748*
X3011Y06777*
X29967*
X29881Y06748*
X29824Y0672*
X29767Y06662*
X29738Y06605*
Y06491*
X29767Y06434*
X29824Y06377*
X29881Y06348*
X30195Y06151D02*
X30224D01*
X30281Y06123*
X3031Y06094*
X30338Y06037*
Y05923*
X3031Y05865*
X30281Y05837*
X30224Y05808*
X30167*
X3011Y05837*
X30024Y05894*
X29738Y0618*
Y0578*
X27782Y06348D02*
X27839Y06377D01*
X27897Y06434*
X27925Y06491*
Y06605*
X27897Y06662*
X27839Y0672*
X27782Y06748*
X27697Y06777*
X27554*
X27468Y06748*
X27411Y0672*
X27354Y06662*
X27325Y06605*
Y06491*
X27354Y06434*
X27411Y06377*
X27468Y06348*
X27811Y0618D02*
X27839Y06123D01*
X27925Y06037*
X27325*
X05922Y-10021D02*
Y-1045D01*
X05951Y-10536*
X06008Y-10593*
X06094Y-10621*
X06151*
X06236Y-10593*
X06294Y-10536*
X06322Y-1045*
Y-10021*
X06545D02*
X06859D01*
X06688Y-1025*
X06773*
X06831Y-10278*
X06859Y-10307*
X06888Y-10393*
Y-1045*
X06859Y-10536*
X06802Y-10593*
X06716Y-10621*
X06631*
X06545Y-10593*
X06516Y-10564*
X06488Y-10507*
X12574Y02704D02*
Y02276D01*
X12602Y0219*
X1266Y02133*
X12745Y02105*
X12802*
X12888Y02133*
X12945Y0219*
X12974Y02276*
Y02704*
X13168Y02562D02*
Y0259D01*
X13197Y02647*
X13225Y02676*
X13282Y02704*
X13397*
X13454Y02676*
X13482Y02647*
X13511Y0259*
Y02533*
X13482Y02476*
X13425Y0239*
X13139Y02105*
X13539*
X20645Y02906D02*
Y02478D01*
X20674Y02392*
X20731Y02335*
X20816Y02306*
X20874*
X20959Y02335*
X21016Y02392*
X21045Y02478*
Y02906*
X21211Y02792D02*
X21268Y0282D01*
X21353Y02906*
Y02306*
M02*