%FSTAX23Y23*%
%MOMM*%
%SFA1B1*%

%IPPOS*%
%ADD64C,0.100000*%
%LNpcb1-1*%
%LPD*%
G54D64*
X01807Y63465D02*
X04583Y6383D01*
X01696Y64307D02*
X01807Y63465D01*
X04472Y64673D02*
X04583Y6383D01*
X01696Y64307D02*
X04472Y64673D01*
X09925Y64221D02*
X12722Y64343D01*
X09888Y6507D02*
X09925Y64221D01*
X12685Y65193D02*
X12722Y64343D01*
X09888Y6507D02*
X12685Y65193D01*
X13987Y64409D02*
X16787D01*
X13987D02*
Y65259D01*
X16787Y64409D02*
Y65259D01*
X13987D02*
X16787D01*
X17924Y64409D02*
X20724D01*
X17924D02*
Y65259D01*
X20724Y64409D02*
Y65259D01*
X17924D02*
X20724D01*
X21863Y64343D02*
X2466Y64221D01*
X21863Y64343D02*
X219Y65193D01*
X2466Y64221D02*
X24697Y6507D01*
X219Y65193D02*
X24697Y6507D01*
X25804Y64277D02*
X28593Y64033D01*
X25804Y64277D02*
X25878Y65124D01*
X28593Y64033D02*
X28667Y6488D01*
X25878Y65124D02*
X28667Y6488D01*
X29747Y63957D02*
X32523Y63592D01*
X29747Y63957D02*
X29858Y648D01*
X32523Y63592D02*
X32634Y64434D01*
X29858Y648D02*
X32634Y64434D01*
X05865Y63906D02*
X08654Y6415D01*
X0579Y64753D02*
X05865Y63906D01*
X0858Y64997D02*
X08654Y6415D01*
X0579Y64753D02*
X0858Y64997D01*
M02*